<?xml version="1.0" encoding="UTF-8" standalone="no"?>
<!-- Created with Inkscape (http://www.inkscape.org/) -->

<svg
   version="1.1"
   id="svg2"
   width="793.70667"
   height="170.08"
   viewBox="0 0 793.70667 170.08"
   sodipodi:docname="Horizontal CMYK.eps"
   xmlns:inkscape="http://www.inkscape.org/namespaces/inkscape"
   xmlns:sodipodi="http://sodipodi.sourceforge.net/DTD/sodipodi-0.dtd"
   xmlns="http://www.w3.org/2000/svg"
   xmlns:svg="http://www.w3.org/2000/svg">
  <defs
     id="defs6" />
  <sodipodi:namedview
     id="namedview4"
     pagecolor="#ffffff"
     bordercolor="#000000"
     borderopacity="0.25"
     inkscape:showpageshadow="2"
     inkscape:pageopacity="0.0"
     inkscape:pagecheckerboard="0"
     inkscape:deskcolor="#d1d1d1" />
  <g
     id="g8"
     inkscape:groupmode="layer"
     inkscape:label="ink_ext_XXXXXX"
     transform="matrix(1.3333333,0,0,-1.3333333,0,170.08)">
    <g
       id="g10"
       transform="scale(0.1)">
      <path
         d="m 494.844,383.852 c 18.144,-22.934 27.215,-49.2 27.215,-78.801 0,-26.731 -6.567,-50.25 -19.688,-70.539 -13.144,-20.293 -32.125,-36.172 -56.945,-47.633 -24.84,-11.469 -54.199,-17.188 -88.098,-17.188 H 141.73 v 499.934 h 206.286 c 33.898,0 63.14,-5.488 87.742,-16.469 24.586,-11 43.207,-26.265 55.863,-45.836 12.649,-19.597 18.984,-41.785 18.984,-66.617 0,-29.137 -7.769,-53.48 -23.281,-73.055 -15.527,-19.593 -36.164,-33.421 -61.957,-41.55 28.164,-5.258 51.328,-19.34 69.477,-42.246 z m -252.832,79.492 h 91.679 c 23.872,0 42.258,5.383 55.149,16.129 12.89,10.726 19.34,26.14 19.34,46.199 0,20.035 -6.45,35.555 -19.34,46.555 -12.891,10.98 -31.277,16.468 -55.149,16.468 H 242.012 Z M 399.945,268.52 c 13.61,11.468 20.41,27.707 20.41,48.714 0,21.493 -7.16,38.325 -21.488,50.504 -14.324,12.16 -33.664,18.266 -58.019,18.266 H 242.012 V 251.34 H 343 c 24.355,0 43.34,5.738 56.945,17.18"
         style="fill:#234e68;fill-opacity:1;fill-rule:nonzero;stroke:none"
         id="path12" />
      <path
         d="M 878.027,264.961 H 678.914 l -32.949,-95.27 H 540.68 l 179.773,500.653 h 116.75 L 1016.98,169.691 H 910.977 Z m -27.214,80.207 -72.336,209.156 -72.348,-209.156 z"
         style="fill:#234e68;fill-opacity:1;fill-rule:nonzero;stroke:none"
         id="path14" />
      <path
         d="m 1360.77,669.625 v -80.93 H 1227.55 V 169.691 H 1127.27 V 588.695 H 994.051 v 80.93 h 366.719"
         style="fill:#234e68;fill-opacity:1;fill-rule:nonzero;stroke:none"
         id="path16" />
      <path
         d="M 1835.63,669.625 V 169.691 H 1735.35 V 382.41 H 1521.2 V 169.691 H 1420.92 V 669.625 H 1521.2 V 464.063 h 214.15 v 205.562 h 100.28"
         style="fill:#234e68;fill-opacity:1;fill-rule:nonzero;stroke:none"
         id="path18" />
      <path
         d="m 2164.39,169.691 -110.31,194.817 h -47.27 V 169.691 h -100.28 v 499.934 h 187.66 c 38.67,0 71.62,-6.797 98.85,-20.414 27.22,-13.598 47.62,-31.988 61.23,-55.152 13.61,-23.161 20.42,-49.047 20.42,-77.7 0,-32.961 -9.56,-62.687 -28.65,-89.183 -19.1,-26.5 -47.52,-44.766 -85.24,-54.793 l 119.62,-202.692 z m -157.58,270.024 h 83.81 c 27.21,0 47.5,6.547 60.87,19.699 13.36,13.113 20.05,31.399 20.05,54.793 0,22.906 -6.69,40.707 -20.05,53.356 -13.37,12.648 -33.66,18.98 -60.87,18.98 h -83.81 V 439.715"
         style="fill:#234e68;fill-opacity:1;fill-rule:nonzero;stroke:none"
         id="path20" />
      <path
         d="m 2437.26,197.621 c -39.15,21.957 -70.19,52.41 -93.11,91.32 -22.92,38.914 -34.37,82.957 -34.37,132.153 0,48.707 11.45,92.5 34.37,131.433 22.92,38.914 53.96,69.336 93.11,91.317 39.15,21.961 82.13,32.941 128.93,32.941 47.27,0 90.35,-10.98 129.28,-32.941 38.91,-21.981 69.72,-52.403 92.39,-91.317 22.68,-38.933 34.03,-82.726 34.03,-131.433 0,-49.196 -11.35,-93.239 -34.03,-132.153 -22.67,-38.91 -53.6,-69.363 -92.75,-91.32 -39.16,-21.961 -82.14,-32.93 -128.92,-32.93 -46.8,0 -89.78,10.969 -128.93,32.93 z m 208.43,77.008 c 22.92,13.594 40.82,33.039 53.73,58.355 12.89,25.317 19.32,54.688 19.32,88.11 0,33.422 -6.43,62.664 -19.32,87.726 -12.91,25.086 -30.81,44.301 -53.73,57.664 -22.92,13.368 -49.42,20.059 -79.5,20.059 -30.08,0 -56.71,-6.691 -79.87,-20.059 -23.16,-13.363 -41.18,-32.578 -54.07,-57.664 -12.89,-25.062 -19.34,-54.304 -19.34,-87.726 0,-33.422 6.45,-62.793 19.34,-88.11 12.89,-25.316 30.91,-44.761 54.07,-58.355 23.16,-13.617 49.79,-20.418 79.87,-20.418 30.08,0 56.58,6.801 79.5,20.418"
         style="fill:#234e68;fill-opacity:1;fill-rule:nonzero;stroke:none"
         id="path22" />
      <path
         d="m 2999.51,197.621 c -39.16,21.957 -70.19,52.41 -93.11,91.32 -22.92,38.914 -34.38,82.957 -34.38,132.153 0,48.707 11.46,92.5 34.38,131.433 22.92,38.914 53.95,69.336 93.11,91.317 39.14,21.961 82.12,32.941 128.92,32.941 47.28,0 90.36,-10.98 129.28,-32.941 38.92,-21.981 69.72,-52.403 92.4,-91.317 22.67,-38.933 34.02,-82.726 34.02,-131.433 0,-49.196 -11.35,-93.239 -34.02,-132.153 -22.68,-38.91 -53.6,-69.363 -92.76,-91.32 -39.15,-21.961 -82.13,-32.93 -128.92,-32.93 -46.8,0 -89.78,10.969 -128.92,32.93 z m 208.43,77.008 c 22.92,13.594 40.82,33.039 53.72,58.355 12.89,25.317 19.33,54.688 19.33,88.11 0,33.422 -6.44,62.664 -19.33,87.726 -12.9,25.086 -30.8,44.301 -53.72,57.664 -22.93,13.368 -49.42,20.059 -79.51,20.059 -30.08,0 -56.7,-6.691 -79.86,-20.059 -23.17,-13.363 -41.19,-32.578 -54.08,-57.664 -12.89,-25.062 -19.34,-54.304 -19.34,-87.726 0,-33.422 6.45,-62.793 19.34,-88.11 12.89,-25.316 30.91,-44.761 54.08,-58.355 23.16,-13.617 49.78,-20.418 79.86,-20.418 30.09,0 56.58,6.801 79.51,20.418"
         style="fill:#234e68;fill-opacity:1;fill-rule:nonzero;stroke:none"
         id="path24" />
      <path
         d="M 3991.51,669.625 V 169.691 H 3891.22 V 494.867 L 3757.29,169.691 h -75.92 L 3546.72,494.867 V 169.691 h -100.28 v 499.934 h 113.89 l 159,-371.73 159,371.73 h 113.18"
         style="fill:#234e68;fill-opacity:1;fill-rule:nonzero;stroke:none"
         id="path26" />
      <path
         d="m 4147.26,182.59 c -27.93,11.93 -50.02,29.121 -66.24,51.558 -16.24,22.442 -24.6,48.946 -25.07,79.497 h 107.43 c 1.44,-20.524 8.71,-36.758 21.85,-48.684 13.13,-11.949 31.15,-17.91 54.08,-17.91 23.38,0 41.77,5.597 55.15,16.828 13.35,11.211 20.05,25.887 20.05,44.043 0,14.801 -4.54,26.965 -13.61,36.527 -9.07,9.543 -20.41,17.063 -34.02,22.571 -13.6,5.468 -32.35,11.57 -56.22,18.265 -32.49,9.543 -58.86,18.981 -79.15,28.293 -20.3,9.309 -37.73,23.371 -52.29,42.25 -14.56,18.852 -21.84,44.043 -21.84,75.567 0,29.601 7.4,55.378 22.2,77.359 14.79,21.961 35.57,38.785 62.32,50.484 26.73,11.696 57.29,17.547 91.68,17.547 51.57,0 93.47,-12.523 125.7,-37.605 32.23,-25.063 50.01,-60.047 53.35,-104.914 h -110.29 c -0.97,17.187 -8.24,31.375 -21.85,42.605 -13.61,11.211 -31.64,16.828 -54.08,16.828 -19.58,0 -35.22,-5.004 -46.92,-15.031 -11.69,-10.031 -17.54,-24.598 -17.54,-43.688 0,-13.386 4.41,-24.492 13.25,-33.316 8.83,-8.848 19.81,-16.004 32.95,-21.473 13.13,-5.511 31.62,-11.824 55.5,-18.98 32.48,-9.566 58.97,-19.109 79.51,-28.652 20.52,-9.567 38.2,-23.879 53.01,-42.989 14.79,-19.109 22.2,-44.172 22.2,-75.207 0,-26.73 -6.93,-51.562 -20.78,-74.492 -13.85,-22.91 -34.14,-41.172 -60.87,-54.793 -26.75,-13.598 -58.51,-20.387 -95.27,-20.387 -34.86,0 -66.25,5.95 -94.19,17.899"
         style="fill:#234e68;fill-opacity:1;fill-rule:nonzero;stroke:none"
         id="path28" />
      <path
         d="m 4479.12,268.289 v 76.391 l 227.06,324.945 h 113.18 V 353.012 h 61.1 v -84.723 h -61.1 v -98.598 h -97.21 v 98.598 z M 4728.39,565.48 4586.05,353.012 h 142.34 z"
         style="fill:#234e68;fill-opacity:1;fill-rule:nonzero;stroke:none"
         id="path30" />
      <path
         d="m 5504.08,599.059 h -86.71 c -15.07,0 -27.27,-12.204 -27.27,-27.27 V 437.848 c 0,-47.383 -12.35,-83.618 -37.06,-108.625 -24.71,-25.086 -59.74,-37.59 -105.17,-37.59 -44.74,0 -79.47,12.504 -104.18,37.59 -24.63,25.007 -36.99,61.242 -36.99,108.625 v 75.859 129.949 c 0,15.067 -12.2,27.27 -27.27,27.27 h -85.72 -66.9 c -8.51,0 -15.14,-7.309 -14.39,-15.895 4.07,-41.808 24.11,-78.875 54.02,-104.937 V 438.902 c 0,-59.511 12.35,-109.679 37.06,-150.738 24.71,-41.133 58.23,-72.016 100.64,-92.652 42.41,-20.723 89.65,-31.043 141.78,-31.043 52.73,0 100.64,10.32 143.73,31.043 43.01,20.636 77.44,51.519 103.13,92.652 25.68,41.059 38.57,91.227 38.57,150.738 v 132.887 c 0,15.066 -12.21,27.27 -27.27,27.27"
         style="fill:#fab235;fill-opacity:1;fill-rule:nonzero;stroke:none"
         id="path32" />
      <path
         d="m 5796.62,891.602 h -119.28 c -0.01,121.048 -98.48,219.518 -219.53,219.518 -121.05,0 -219.52,-98.48 -219.52,-219.522 0,-120.985 98.47,-219.414 219.52,-219.414 39.19,0 77.66,10.496 111.27,30.336 15.76,9.265 30.06,20.441 42.79,33.043 5.44,-1.348 10.95,-2.516 16.59,-3.297 7.31,-1.008 14.72,-1.575 22.36,-1.575 83.48,0 152.19,63.7 160.14,145.114 0.82,8.441 -5.86,15.797 -14.34,15.797 z M 5457.81,762.02 c -71.53,0 -129.7,58.168 -129.7,129.578 0,71.523 58.17,129.692 129.7,129.692 71.53,0 129.7,-58.169 129.7,-129.692 0,-47.496 -25.72,-89.157 -64.11,-111.727 -19.21,-11.344 -41.66,-17.851 -65.59,-17.851"
         style="fill:#fab235;fill-opacity:1;fill-rule:nonzero;stroke:none"
         id="path34" />
      <path
         d="m 5525.09,923.988 c -17.86,0 -32.34,-14.476 -32.34,-32.332 0,-17.851 14.48,-32.332 32.34,-32.332 17.85,0 32.33,14.481 32.33,32.332 0,17.856 -14.48,32.332 -32.33,32.332"
         style="fill:#fab235;fill-opacity:1;fill-rule:nonzero;stroke:none"
         id="path36" />
    </g>
  </g>
</svg>
