<svg xmlns="http://www.w3.org/2000/svg" width="479.05" height="88.031" viewBox="0 0 479.05 88.031">
  <g id="top-logo" transform="translate(-78.941 -247.543)">
    <path id="Beat_The_Bank_" data-name="Beat The Bank  " d="M387.371,333.075q-5.354-2.1-7.245-5.774a12.436,12.436,0,0,1-.262-10.08,9.348,9.348,0,0,1,.84-1.68q.473-.733.945-.788t.893,1.312a10.332,10.332,0,0,0,1.47,2.993,12.189,12.189,0,0,0,2,2.2A16.128,16.128,0,0,0,388,322.733a11.069,11.069,0,0,0,1.471.787,18.529,18.529,0,0,0,8.4,1.733,39.6,39.6,0,0,0,9.562-1.313,51.961,51.961,0,0,0,9.43-3.465,40.527,40.527,0,0,0,7.972-4.935,21.45,21.45,0,0,0,5.112-5.67,7.01,7.01,0,0,0,1-5.565Q430.21,302,426.2,300.42a44.525,44.525,0,0,0-9.5-2.415,10.1,10.1,0,0,1-1.426.1h-2.692q-1.689,6.931-2.534,12.181a40.8,40.8,0,0,0-.528,9.45q-.312.736-2.08.419a19.254,19.254,0,0,1-3.746-1.1,20.329,20.329,0,0,1-3.588-1.837q-1.612-1.049-1.611-1.89.207-5.25.832-10.028A91.627,91.627,0,0,1,401,296.115a11.722,11.722,0,0,1-4.755-3.57,12.905,12.905,0,0,1-2.468-6.615,10.4,10.4,0,0,1,.052-2.31,6.853,6.853,0,0,1,.473-1.942c.211-.455.454-.612.735-.473s.594.84.945,2.1a8.179,8.179,0,0,0,2.1,4.043,9.925,9.925,0,0,0,4.587,2.468q2.183-7.769,4.369-13.913a54.293,54.293,0,0,0,2.809-10.868q.428-.629,2.039.105a20,20,0,0,1,3.355,2,20.6,20.6,0,0,1,3.058,2.677q1.311,1.418,1.207,2.152-1.365,5.251-2.572,9.765t-2.257,8.61l2.52-.315a27.089,27.089,0,0,0,8.4-3.36,31.327,31.327,0,0,0,7.035-5.775,28.6,28.6,0,0,0,4.883-7.4,22.717,22.717,0,0,0,2.047-8.348,9.358,9.358,0,0,0-1.156-5.407,7.141,7.141,0,0,0-3.254-2.783,11.711,11.711,0,0,0-4.306-.893,34.109,34.109,0,0,0-4.3.157,57.736,57.736,0,0,0-13.493,3.255,55.121,55.121,0,0,0-12.547,6.458,39.186,39.186,0,0,0-9.45,9.135,22.144,22.144,0,0,0-4.306,11.288q.209,1.471-.473,1.837a3.618,3.618,0,0,1-2.467-.158,7.934,7.934,0,0,1-4.83-3.465,13.071,13.071,0,0,1-2-5.88,17.216,17.216,0,0,1,.63-6.51,13.028,13.028,0,0,1,3.046-5.46,32.8,32.8,0,0,1,10.5-9.607,56.044,56.044,0,0,1,14.28-5.985,68.924,68.924,0,0,1,15.54-2.31A50.308,50.308,0,0,1,435.3,250.23a27.853,27.853,0,0,1,10.762,5.2,12.4,12.4,0,0,1,4.725,8.977,18.5,18.5,0,0,1-1.312,8.086,34.634,34.634,0,0,1-4.673,8.4,47.107,47.107,0,0,1-7.3,7.717,45.036,45.036,0,0,1-9.083,6.037l1.89.63a13.209,13.209,0,0,1,6.51,4.936,10.2,10.2,0,0,1,1.471,6.719,19.105,19.105,0,0,1-2.783,7.613,36.586,36.586,0,0,1-6.151,7.56,48.824,48.824,0,0,1-8.7,6.562,46.677,46.677,0,0,1-10.439,4.621,41.669,41.669,0,0,1-11.409,1.785c-.185,0-.37,0-.554,0A30.617,30.617,0,0,1,387.371,333.075Zm-297.455,0q-5.355-2.1-7.245-5.774a12.433,12.433,0,0,1-.263-10.08,9.349,9.349,0,0,1,.84-1.68q.473-.733.945-.788t.893,1.312a10.333,10.333,0,0,0,1.47,2.993,12.189,12.189,0,0,0,2,2.2,16.133,16.133,0,0,0,2,1.471,11.071,11.071,0,0,0,1.47.787,18.529,18.529,0,0,0,8.4,1.733,39.6,39.6,0,0,0,9.562-1.313,51.961,51.961,0,0,0,9.43-3.465,40.526,40.526,0,0,0,7.972-4.935,21.45,21.45,0,0,0,5.112-5.67,7.01,7.01,0,0,0,1-5.565q-.736-2.309-4.743-3.885a44.524,44.524,0,0,0-9.5-2.415,10.1,10.1,0,0,1-1.426.1h-2.692q-1.689,6.931-2.533,12.181a40.8,40.8,0,0,0-.528,9.45q-.312.736-2.08.419a19.254,19.254,0,0,1-3.746-1.1,20.33,20.33,0,0,1-3.588-1.837q-1.612-1.049-1.611-1.89.207-5.25.832-10.028a91.877,91.877,0,0,1,1.666-9.187,11.722,11.722,0,0,1-4.755-3.57,12.905,12.905,0,0,1-2.468-6.615,10.346,10.346,0,0,1,.053-2.31,6.792,6.792,0,0,1,.473-1.942q.315-.682.734-.473t.945,2.1a8.179,8.179,0,0,0,2.1,4.043,9.925,9.925,0,0,0,4.587,2.468q2.183-7.769,4.369-13.913a54.3,54.3,0,0,0,2.809-10.868q.428-.629,2.039.105a20,20,0,0,1,3.355,2,20.6,20.6,0,0,1,3.058,2.677q1.311,1.418,1.208,2.152-1.366,5.251-2.573,9.765t-2.257,8.61l2.52-.315a27.08,27.08,0,0,0,8.4-3.36,31.327,31.327,0,0,0,7.035-5.775,28.6,28.6,0,0,0,4.882-7.4,22.717,22.717,0,0,0,2.048-8.348,9.366,9.366,0,0,0-1.155-5.407,7.147,7.147,0,0,0-3.255-2.783,11.71,11.71,0,0,0-4.3-.893,34.116,34.116,0,0,0-4.306.157,57.718,57.718,0,0,0-13.492,3.255,55.109,55.109,0,0,0-12.548,6.458,39.186,39.186,0,0,0-9.45,9.135,22.134,22.134,0,0,0-4.3,11.288q.208,1.471-.472,1.837a3.62,3.62,0,0,1-2.468-.158,7.936,7.936,0,0,1-4.83-3.465,13.059,13.059,0,0,1-1.994-5.88,17.2,17.2,0,0,1,.63-6.51,13.026,13.026,0,0,1,3.045-5.46,32.8,32.8,0,0,1,10.5-9.607,56.038,56.038,0,0,1,14.279-5.985,68.932,68.932,0,0,1,15.54-2.31,50.3,50.3,0,0,1,14.333,1.417,27.853,27.853,0,0,1,10.762,5.2,12.4,12.4,0,0,1,4.725,8.977,18.482,18.482,0,0,1-1.312,8.086,34.633,34.633,0,0,1-4.673,8.4,47.106,47.106,0,0,1-7.3,7.717,45.036,45.036,0,0,1-9.083,6.037l1.89.63a13.212,13.212,0,0,1,6.511,4.936,10.2,10.2,0,0,1,1.47,6.719,19.105,19.105,0,0,1-2.783,7.613,36.557,36.557,0,0,1-6.151,7.56,48.823,48.823,0,0,1-8.7,6.562,46.676,46.676,0,0,1-10.439,4.621,41.669,41.669,0,0,1-11.409,1.785c-.185,0-.37,0-.554,0A30.609,30.609,0,0,1,89.915,333.075Zm190.1-1.785a17.662,17.662,0,0,1-3.622-1.1,18.571,18.571,0,0,1-3.413-1.838q-1.523-1.05-1.523-1.89a85.381,85.381,0,0,1,2.416-17.114q2.1-8.609,4.777-16.38t5.407-14.175q2.73-6.4,4.2-10.4.419-.63,1.942.1a18.041,18.041,0,0,1,3.15,2,17,17,0,0,1,2.783,2.678q1.154,1.417,1.05,2.153-3.571,9.241-6.405,17.692T286,308.715q-1.944,7.244-2.94,12.915a47.458,47.458,0,0,0-.893,9.239,1.3,1.3,0,0,1-1.232.515A5.222,5.222,0,0,1,280.013,331.29Zm49.926-8.768a10.115,10.115,0,0,1-1.846-2.788,27.936,27.936,0,0,1-2.143,2.945,11.107,11.107,0,0,1-3.413,2.835,4.332,4.332,0,0,1-3.832.105,10.533,10.533,0,0,1-4.935-4.41,12.537,12.537,0,0,1-1.575-6.195,24.01,24.01,0,0,1,1-6.773,50.532,50.532,0,0,1,2.468-6.668q.315-.838.63-1.837a3.826,3.826,0,0,0,.21-1.68q-.107-.682-.63-.787t-1.89.84a22.438,22.438,0,0,0-4.725,5.566,32.341,32.341,0,0,0-3.045,6.719q-.737,2.942-1.471,6.2a26.541,26.541,0,0,0-.734,5.774q0,2.73.734,3.57a12.068,12.068,0,0,1-3.884,0,9.841,9.841,0,0,1-3.57-1.26,6.41,6.41,0,0,1-2.415-2.52,5.5,5.5,0,0,1-.315-3.885q1.362-6.93,3.307-14.857a156.606,156.606,0,0,1,4.777-15.8,103.929,103.929,0,0,1,6.772-15.016,53.643,53.643,0,0,1,9.4-12.495,9.292,9.292,0,0,1,3.465-2.153,5.87,5.87,0,0,1,3.36-.158,4.9,4.9,0,0,1,2.677,1.89,7.787,7.787,0,0,1,1.312,4.1,34.855,34.855,0,0,1-1.837,9.031,38.562,38.562,0,0,1-3.937,8.19,32.1,32.1,0,0,1-5.566,6.615,21.53,21.53,0,0,1-6.719,4.2,7.228,7.228,0,0,0-.473,1.156,3.171,3.171,0,0,1-.368.84,16.073,16.073,0,0,1,4.043-2.415,12.244,12.244,0,0,1,4.777-.945,7.025,7.025,0,0,1,3.622.84,5.937,5.937,0,0,1,2.2,2.257,7.5,7.5,0,0,1,.893,3.255,12.331,12.331,0,0,1-.42,3.832q-.736,2.416-1.312,4.41t-1.05,3.728q-.473,1.732-.945,3.255t-.892,3.1a9.892,9.892,0,0,0-.473,3.361q.157.841.682.63a3.741,3.741,0,0,0,1.312-1.313q.788-1.1,1.628-2.362t1.47-2.415q.63-1.154.945-1.68l.083-.161a26.627,26.627,0,0,1,1.859-6.821,29.381,29.381,0,0,1,3.832-6.615,32.121,32.121,0,0,1,5.145-5.3,26.474,26.474,0,0,1,5.88-3.675,14.088,14.088,0,0,1,5.985-1.365,14.584,14.584,0,0,1,4.2.63,10.773,10.773,0,0,1,3.675,1.89,8.668,8.668,0,0,1,2.468,3.2,8.4,8.4,0,0,1,.578,4.568,17.012,17.012,0,0,1-4.2,9.03,23.266,23.266,0,0,1-7.455,5.145,42.615,42.615,0,0,1-6.09,2.205,54.962,54.962,0,0,1-5.565,1.26,6.2,6.2,0,0,0,1.575,3.622,4.332,4.332,0,0,0,3.36,1.522,13.77,13.77,0,0,0,6.878-1.942,28.561,28.561,0,0,0,6.4-5.04,43.7,43.7,0,0,0,5.513-7.087,52.374,52.374,0,0,0,4.2-8.085,2.477,2.477,0,0,1,1.208-1.418,2.008,2.008,0,0,1,1.47-.158,2.131,2.131,0,0,1,1.155.945,2.342,2.342,0,0,1,.263,1.785,26.881,26.881,0,0,1-3.15,8.82,37.172,37.172,0,0,1-6.405,8.505,36.145,36.145,0,0,1-8.924,6.51,25.114,25.114,0,0,1-10.815,2.835q-.354.011-.7.011Q333.322,326.156,329.938,322.522Zm19.005-27.142a24.206,24.206,0,0,0-6.668,6.51,30.572,30.572,0,0,0-3.623,8.086,36.224,36.224,0,0,0,4.463-1.156,42.379,42.379,0,0,0,4.147-1.575,22,22,0,0,0,2.94-1.785,13.84,13.84,0,0,0,2.572-2.363,10.821,10.821,0,0,0,1.733-2.835,8.027,8.027,0,0,0,.63-3.1q-.105-2.519-1.942-3.045a3.142,3.142,0,0,0-.865-.119A5.9,5.9,0,0,0,348.944,295.38Zm-30.135-19.74a77.382,77.382,0,0,0-4.725,9.345,27.719,27.719,0,0,0,6.4-7.56,40.625,40.625,0,0,0,4.306-9.975,1.275,1.275,0,0,0,.1-.841q-.105-.315-.525.315h-.105Q321.433,271.231,318.809,275.64Zm-169.78,46.882q-3.572-3.831-2.731-10.657a26.613,26.613,0,0,1,1.943-7.508,29.348,29.348,0,0,1,3.832-6.615,32.12,32.12,0,0,1,5.145-5.3,26.453,26.453,0,0,1,5.88-3.675,14.085,14.085,0,0,1,5.985-1.365,14.584,14.584,0,0,1,4.2.63,10.789,10.789,0,0,1,3.675,1.89,8.668,8.668,0,0,1,2.468,3.2A8.4,8.4,0,0,1,180,297.69a17,17,0,0,1-4.2,9.03,23.266,23.266,0,0,1-7.455,5.145,42.643,42.643,0,0,1-6.089,2.205,54.918,54.918,0,0,1-5.566,1.26,6.2,6.2,0,0,0,1.575,3.622,4.334,4.334,0,0,0,3.361,1.522,13.767,13.767,0,0,0,6.877-1.942,28.566,28.566,0,0,0,6.405-5.04,40.788,40.788,0,0,0,2.828-3.261q.028-.155.058-.31a23.528,23.528,0,0,1,1.26-4.253,41.708,41.708,0,0,1,3.045-5.565,32.4,32.4,0,0,1,4.935-5.985,26.344,26.344,0,0,1,6.825-4.725,18.465,18.465,0,0,1,8.61-1.785,6.762,6.762,0,0,1,3.622,1.26,12.163,12.163,0,0,1,2.783,2.73,10.984,10.984,0,0,1,1.679,3.307,8.544,8.544,0,0,1,.42,3.1q0,.526-.735.84a3.963,3.963,0,0,1-1.575.315,5.033,5.033,0,0,1-1.942-.367,1.249,1.249,0,0,1-.892-1.208,3.9,3.9,0,0,0-.211-1,6.387,6.387,0,0,0-.577-1.313,4.123,4.123,0,0,0-.945-1.1,1.633,1.633,0,0,0-1.313-.367,7.817,7.817,0,0,0-3.78,1.312,18.759,18.759,0,0,0-3.675,3.15,28.908,28.908,0,0,0-3.307,4.41,35.272,35.272,0,0,0-2.572,4.988q-2.418,5.67-2.416,8.925,0,2.731,1.786,2.73a4.048,4.048,0,0,0,.892-.21q.682-.209,1.208-.42h-.105a31.9,31.9,0,0,0,6.405-5.67q3.044-3.465,5.459-6.825a10.951,10.951,0,0,1,1.05-2.416,3.736,3.736,0,0,0,.42-2.52,1.082,1.082,0,0,1,.63-1.207,3.956,3.956,0,0,1,1.785-.368,13.2,13.2,0,0,1,2.048.158q1,.158,1.523.263a3.851,3.851,0,0,1,2,1.627,6.071,6.071,0,0,1,.525,2.783,16.352,16.352,0,0,1-.367,3.675q-.37,1.575-1,3.465l-1.05,3.465a18.765,18.765,0,0,0-.525,3.361q0,.841.578.473a7.137,7.137,0,0,0,1.47-1.471q.891-1.1,2.048-2.677t2.31-3.254h-.105q2.309-4.305,4.043-8.032.394-.847.741-1.61.408-1.51.885-3.325.838-3.2,1.89-7.612t2.415-10.29a3.618,3.618,0,0,1-2.415-.945,4.021,4.021,0,0,1-1.1-2.048,7.807,7.807,0,0,1-.105-2.573,8.366,8.366,0,0,1,.682-2.52,19.893,19.893,0,0,0,2.416.263q1.154.054,2.624.052l2.731-10.08a10.574,10.574,0,0,1,2.782-.262,9.691,9.691,0,0,1,2.888.577,4.845,4.845,0,0,1,2.572,2.258,6.515,6.515,0,0,1,.682,3.412,13.357,13.357,0,0,1-.315,2c-.141.561-.28,1.121-.419,1.68a6.83,6.83,0,0,1,2.782.262,1.937,1.937,0,0,1,1.156,1.05,3.1,3.1,0,0,1,.1,1.627,11.543,11.543,0,0,0-.158,1.89,5.164,5.164,0,0,1-.419,1.89q-.421,1.052-.945,2.2a7.455,7.455,0,0,0-2.573-.788,20.808,20.808,0,0,0-2.467.053q-2.732,9.765-4.358,15.8t-2.572,9.607q-.945,3.571-1.417,5.25t-.788,2.625a12.162,12.162,0,0,0-1,4.043c.035.805.279,1.225.735,1.26a3.307,3.307,0,0,0,1.89-.788,20.7,20.7,0,0,0,2.468-2.048,22.833,22.833,0,0,0,2.309-2.573,19.714,19.714,0,0,0,1.575-2.309q2.309-3.989,4.2-7.875t2.835-5.985a2.52,2.52,0,0,1,1.365-.893,2.019,2.019,0,0,1,1.364.158,2.251,2.251,0,0,1,1,1.05,2.472,2.472,0,0,1,.158,1.679q-1.681,3.677-3.361,7.193t-3.465,6.878q-.736,1.26-2.1,3.36a33.612,33.612,0,0,1-3.15,4.1,22.754,22.754,0,0,1-3.885,3.465,7.435,7.435,0,0,1-4.3,1.47,6.922,6.922,0,0,1-5.355-1.942,9.423,9.423,0,0,1-2.31-4.777,18.346,18.346,0,0,1-.269-2.176l-.516.863a28.363,28.363,0,0,1-3.1,4.253,13.765,13.765,0,0,1-3.569,2.94,4.239,4.239,0,0,1-3.885.21,10.406,10.406,0,0,1-4.463-4.1,12.433,12.433,0,0,1-1.627-5.144,44.032,44.032,0,0,1-5.407,5.144,16.271,16.271,0,0,1-6.248,3.15,14.369,14.369,0,0,1-1.679.315,12.217,12.217,0,0,1-1.471.105,7.448,7.448,0,0,1-6.562-3.1,11.525,11.525,0,0,1-1.705-3.822,36.429,36.429,0,0,1-7.586,5.239,25.107,25.107,0,0,1-10.814,2.835q-.354.011-.7.011Q152.413,326.156,149.029,322.522Zm19-27.142a24.2,24.2,0,0,0-6.667,6.51,30.543,30.543,0,0,0-3.623,8.086,36.211,36.211,0,0,0,4.462-1.156,42.31,42.31,0,0,0,4.148-1.575,21.939,21.939,0,0,0,2.939-1.785,13.846,13.846,0,0,0,2.573-2.363,10.846,10.846,0,0,0,1.732-2.835,8.043,8.043,0,0,0,.63-3.1q-.107-2.519-1.943-3.045a3.142,3.142,0,0,0-.865-.119A5.9,5.9,0,0,0,168.034,295.38Zm318.4,30.5a6.811,6.811,0,0,1-2.888-1.418,6.967,6.967,0,0,1-1.942-2.625,5.431,5.431,0,0,1-.331-1.055q-.627.827-1.3,1.58a13.769,13.769,0,0,1-3.57,2.94,4.237,4.237,0,0,1-3.884.21,10.4,10.4,0,0,1-4.463-4.1,12.434,12.434,0,0,1-1.627-5.144,44.033,44.033,0,0,1-5.407,5.144,16.271,16.271,0,0,1-6.248,3.15,14.348,14.348,0,0,1-1.68.315,12.191,12.191,0,0,1-1.47.105,7.45,7.45,0,0,1-6.563-3.1,13.205,13.205,0,0,1-2.152-7.717,22.325,22.325,0,0,1,.419-4.253,23.673,23.673,0,0,1,1.26-4.253,41.833,41.833,0,0,1,3.046-5.565,32.4,32.4,0,0,1,4.935-5.985A26.345,26.345,0,0,1,459.4,289.4a18.465,18.465,0,0,1,8.61-1.785,6.762,6.762,0,0,1,3.622,1.26,12.163,12.163,0,0,1,2.783,2.73,10.984,10.984,0,0,1,1.679,3.307,8.545,8.545,0,0,1,.42,3.1q0,.526-.735.84a3.963,3.963,0,0,1-1.575.315,5.033,5.033,0,0,1-1.942-.367,1.25,1.25,0,0,1-.893-1.208,3.886,3.886,0,0,0-.21-1,6.343,6.343,0,0,0-.578-1.313,4.091,4.091,0,0,0-.945-1.1,1.63,1.63,0,0,0-1.312-.367,7.816,7.816,0,0,0-3.78,1.312,18.759,18.759,0,0,0-3.675,3.15,28.908,28.908,0,0,0-3.307,4.41,35.369,35.369,0,0,0-2.573,4.988q-2.417,5.67-2.415,8.925,0,2.731,1.785,2.73a4.041,4.041,0,0,0,.893-.21q.682-.209,1.208-.42h-.105a31.9,31.9,0,0,0,6.405-5.67q3.044-3.465,5.459-6.825a10.909,10.909,0,0,1,1.05-2.416,3.736,3.736,0,0,0,.42-2.52,1.082,1.082,0,0,1,.63-1.207,3.956,3.956,0,0,1,1.785-.368,13.2,13.2,0,0,1,2.047.158q1,.158,1.523.263a3.844,3.844,0,0,1,1.994,1.627,6.058,6.058,0,0,1,.526,2.783,16.3,16.3,0,0,1-.368,3.675q-.369,1.575-1,3.465l-1.05,3.465a18.766,18.766,0,0,0-.525,3.361q0,.841.578.473a7.136,7.136,0,0,0,1.47-1.471q.891-1.1,2.048-2.677t2.31-3.254h-.105q1.5-2.8,2.76-5.354.67-2.573,1.387-5.146.787-2.835,1.418-5.2t.945-4.1a7.835,7.835,0,0,0,.21-2.257q-.105-.84.893-1.208a7.187,7.187,0,0,1,2.468-.367,7.679,7.679,0,0,1,2.624.419,3.9,3.9,0,0,1,2.415,1.943,9.749,9.749,0,0,1,.945,3.517,6.092,6.092,0,0,1,1.471-1.155,12.546,12.546,0,0,1,7.245-2.31q3.568,0,5.145,2.153a8.064,8.064,0,0,1,1.574,4.883,13.049,13.049,0,0,1-.1,1.575,7.432,7.432,0,0,1-.42,1.679h.105q-.212.736-.42,1.365a7.639,7.639,0,0,0-.315,1.365l-1.26,4.1a3.806,3.806,0,0,0-.157.682,7.631,7.631,0,0,1-.577,1.523h.1l-1.575,5.459a17.238,17.238,0,0,0-.63,3.676q0,.945.735.367a10.707,10.707,0,0,0,1.732-1.89q1-1.312,2.048-2.993T514,311.34q1.532-2.973,3.142-6.181.476-1.73.953-3.427.84-2.992,1.47-5.407,1.154-4.829,2.888-9.817a81.452,81.452,0,0,1,4.095-9.713,73.761,73.761,0,0,1,5.3-8.978,55.505,55.505,0,0,1,6.405-7.717q2.939-2.73,5.775-2.73a4.247,4.247,0,0,1,3.569,1.837,8,8,0,0,1,1.471,4.568,33.464,33.464,0,0,1-1.786,8.82,36.7,36.7,0,0,1-3.727,7.717,27.391,27.391,0,0,1-5.355,6.143,22.948,22.948,0,0,1-6.668,3.991,4.066,4.066,0,0,0-.419.945c-.141.419-.3.876-.472,1.364s-.333.929-.473,1.313a2.57,2.57,0,0,1-.315.682,29.216,29.216,0,0,1,4.2-2.835,9.75,9.75,0,0,1,4.83-1.365,4.954,4.954,0,0,1,4.2,1.786,7.769,7.769,0,0,1,1.364,4.829,16.173,16.173,0,0,1-.63,4.358,17.439,17.439,0,0,1-1.942,4.41,18.219,18.219,0,0,1-3.255,3.938,14.786,14.786,0,0,1-4.568,2.835h.211c.21.141.541.4,1,.787a11.4,11.4,0,0,0,1.68,1.155,14.182,14.182,0,0,0,2.1,1,6.024,6.024,0,0,0,2.153.419,4.607,4.607,0,0,0,2.73-1,10.312,10.312,0,0,0,2.73-3.728q1.785-3.464,3.676-7.245t3.045-6.195a1.738,1.738,0,0,1,1.208-.893,2.134,2.134,0,0,1,1.47.211,3.313,3.313,0,0,1,1.155,1.049,1.748,1.748,0,0,1,.157,1.628q-.736,2.1-2.52,5.932t-3.675,7.717l-.84,1.156h.1q-.945,1.574-2.205,3.832a24.923,24.923,0,0,1-2.835,4.1,12.215,12.215,0,0,1-3.412,2.835,4.227,4.227,0,0,1-3.833.158,21.021,21.021,0,0,1-4.62-2.783,24.859,24.859,0,0,1-3.885-3.78,18.55,18.55,0,0,1-2.624-4.147,7.351,7.351,0,0,1-.735-3.885,4.341,4.341,0,0,1,1.365-2.205q1.154-1.363,2.257-2.467t2.047-1.943q1.363-1.26,2.415-2.309a4.419,4.419,0,0,0,1.26-1.89q.84-2.309-.262-2.625a2.442,2.442,0,0,0-2.362.945H532.9a17.909,17.909,0,0,0-3.255,3.255,20.506,20.506,0,0,0-1.942,3.045,15.407,15.407,0,0,0-1,2.415,6.378,6.378,0,0,0-.315,1.365l-.841,2.835q-.736,2.311-1.47,5.355a23.514,23.514,0,0,0-.735,5.46,17.678,17.678,0,0,0,.105,2.047,2.739,2.739,0,0,0,.525,1.418,11.751,11.751,0,0,1-3.832,0,9.82,9.82,0,0,1-3.517-1.26,6.425,6.425,0,0,1-2.416-2.52,4.512,4.512,0,0,1-.344-.845q-.594.815-1.23,1.58a11.107,11.107,0,0,1-3.413,2.835,4.118,4.118,0,0,1-3.728.105,9.866,9.866,0,0,1-5.2-4.673,14.164,14.164,0,0,1-1.313-5.932c0-.56.016-1.1.052-1.628s.087-1,.158-1.418q.417-1.89,1.049-3.937t1.365-4.042H501.5c.069-.139.121-.211.158-.211s.053-.068.053-.21a18.963,18.963,0,0,0,1.155-4.62q0-1.785-.525-1.786a2.6,2.6,0,0,0-1.68.945,21.35,21.35,0,0,0-4.673,5.408,40.713,40.713,0,0,0-2.047,3.938q-.736,2.416-1.522,5.144t-1.365,5.3q-.579,2.574-.893,4.725a8.58,8.58,0,0,0,0,3.307h-.525a7.459,7.459,0,0,1-1.465.145A7.894,7.894,0,0,1,486.437,325.883Zm51.817-50.242a77.64,77.64,0,0,0-4.725,9.345,27.722,27.722,0,0,0,6.405-7.56,40.586,40.586,0,0,0,4.3-9.975,2.714,2.714,0,0,0,.263-.945c.034-.35.052-.594.052-.735a4.214,4.214,0,0,0-.735,1.155h-.1Q540.878,271.231,538.253,275.64Zm-284.6,12.6a13.732,13.732,0,0,1-.21-5.2,26.244,26.244,0,0,1,1.68-6.458,15.079,15.079,0,0,1,3.2-5.251,27.972,27.972,0,0,1,5.933-5.25,74.983,74.983,0,0,1,9.5-5.565,126.337,126.337,0,0,1,12.022-5.2,137.551,137.551,0,0,1,13.335-4.252,97.737,97.737,0,0,1,13.44-2.573,57.07,57.07,0,0,1,12.39-.21,29.508,29.508,0,0,1,10.185,2.783,15.665,15.665,0,0,1,6.877,6.51,4.978,4.978,0,0,1,.788,2.52,11.72,11.72,0,0,1-.1,3.15,6.6,6.6,0,0,1-.788,2.31q-.526.841-1.156,0a10.3,10.3,0,0,0-3.307-5.512,13.906,13.906,0,0,0-5.355-2.731,25.984,25.984,0,0,0-6.195-.84q-3.2-.051-5.933.052a55.537,55.537,0,0,0-15.382,2.835,106.634,106.634,0,0,0-16.17,6.772,134.314,134.314,0,0,0-15.383,9.293,122.9,122.9,0,0,0-13.019,10.395,28.67,28.67,0,0,0-2.153,1.943q-1,1-1.838,1.942a2.3,2.3,0,0,1-.76.146Q254.1,289.856,253.657,288.24Z" stroke="#000" stroke-width="1"/>
  </g>
</svg>
