<svg width="167" height="74" viewBox="0 0 167 74" fill="none" xmlns="http://www.w3.org/2000/svg">
<path d="M145.607 39.4481C145.377 39.5978 145.244 39.677 145.12 39.7648C142.237 41.8149 139.026 42.6096 135.513 42.3692C128.466 41.8863 121.864 37.1847 120.202 28.9227C118.719 21.5578 120.749 15.2368 126.823 10.5486C130.137 7.98967 134.004 7.15247 138.155 7.59859C140.747 7.87669 143.112 8.76218 145.252 10.2531C145.328 10.3062 145.415 10.3439 145.607 10.4491C145.607 9.97019 145.607 9.56655 145.607 9.16195C145.607 8.30254 145.73 8.17507 146.573 8.17507C148.954 8.17314 151.336 8.17314 153.718 8.17507C154.549 8.17507 154.665 8.29288 154.665 9.13009C154.665 18.5914 154.665 28.0527 154.665 37.514C154.665 38.6563 154.669 39.7986 154.663 40.941C154.66 41.5358 154.447 41.7512 153.846 41.7521C151.368 41.756 148.891 41.757 146.413 41.7521C145.825 41.7512 145.613 41.5252 145.608 40.9294C145.605 40.4717 145.608 40.014 145.608 39.4481H145.607ZM137.416 16.2401C134.33 16.2178 131.753 17.7387 130.301 20.4705C129.355 22.2502 128.97 24.1476 129.247 26.1552C129.704 29.4635 131.368 31.9384 134.544 33.0942C138.17 34.4143 141.467 33.5809 144.244 30.9457C147.48 27.8769 147.898 21.8243 143.647 18.4533C141.817 17.0019 139.752 16.2478 137.415 16.2391L137.416 16.2401Z" fill="#E64414"/>
<path d="M44.4804 27.4626C44.3461 30.8346 46.5825 34.139 49.5779 34.8729C52.132 35.4986 54.6263 35.1703 56.9506 33.8947C58.1132 33.2564 58.9485 32.2918 59.468 31.0625C59.7017 30.5092 59.8996 30.3866 60.4761 30.5208C62.4595 30.9843 64.441 31.4604 66.4196 31.9441C66.9623 32.0764 67.1042 32.3883 66.9082 32.9783C66.1492 35.2601 64.8466 37.1827 63.0292 38.7519C60.8498 40.6339 58.2687 41.6314 55.4674 42.1248C51.2582 42.8664 47.273 42.175 43.5331 40.1501C39.2688 37.8413 36.8287 34.1892 36.032 29.4586C35.4053 25.7361 35.4652 22.0165 36.792 18.4262C38.8082 12.9714 42.5394 9.28263 48.2666 7.92881C55.6779 6.17618 62.7927 9.67854 66.0864 16.5471C67.5668 19.6342 68.0998 22.8942 67.8255 26.2961C67.814 26.44 67.7773 26.581 67.7551 26.7239C67.6662 27.2907 67.4769 27.4588 66.8937 27.4626C66.2013 27.4675 65.5099 27.4636 64.8176 27.4636C58.2522 27.4636 51.6879 27.4636 45.1225 27.4636C44.9178 27.4636 44.7131 27.4636 44.4823 27.4636L44.4804 27.4626ZM51.7332 20.3903C53.5506 20.3903 55.3679 20.3961 57.1852 20.3874C57.8853 20.3845 58.1779 19.9481 57.9201 19.3011C57.7955 18.9892 57.6555 18.6773 57.4797 18.3924C56.1307 16.214 54.1782 15.0648 51.6077 15.229C48.9503 15.399 46.9842 16.747 45.7482 19.1147C45.3166 19.9423 45.6198 20.3894 46.571 20.3913C48.2917 20.3932 50.0125 20.3913 51.7332 20.3913V20.3903Z" fill="#E64414"/>
<path d="M9.11269 10.4453C9.31644 10.3217 9.42749 10.2637 9.52888 10.1913C12.5446 8.05726 15.9185 7.21619 19.5657 7.5445C25.7506 8.10071 31.7887 12.532 32.8673 19.9239C33.0962 21.4931 33.2285 23.0893 33.242 24.6739C33.2874 30.0312 33.2593 35.3895 33.2593 40.7478C33.2593 41.5493 33.0604 41.7531 32.2725 41.754C29.8429 41.755 27.4134 41.755 24.9839 41.754C24.248 41.754 24.0404 41.5445 24.0404 40.8077C24.0404 35.0796 24.0424 29.3514 24.0395 23.6233C24.0375 20.1306 21.7828 17.2559 18.404 16.4235C14.2228 15.3932 9.92093 18.4137 9.50281 22.6779C9.45453 23.1733 9.42652 23.6716 9.42556 24.1689C9.41976 29.6875 9.42266 35.207 9.4217 40.7256C9.4217 41.5966 9.26237 41.7531 8.37881 41.754C5.91741 41.754 3.45504 41.754 0.993638 41.754C0.20568 41.754 0 41.5455 0 40.7527C0.000965634 30.2137 0.000965634 19.6738 0.000965634 9.1349C0.000965634 8.35081 0.17478 8.17603 0.964669 8.17506C3.36234 8.17313 5.76001 8.17313 8.15671 8.17506C8.93212 8.17506 9.1098 8.36046 9.11173 9.14842C9.11269 9.54819 9.11173 9.94797 9.11173 10.4453H9.11269Z" fill="#E64414"/>
<path d="M82.4852 7.48657C86.1604 7.57541 89.6328 8.42613 92.8387 10.2676C93.0338 10.3796 93.2231 10.5032 93.4036 10.6365C93.7426 10.8846 93.8237 11.2081 93.5958 11.5625C92.3579 13.4812 91.118 15.399 89.8636 17.3071C89.5865 17.7291 89.2611 17.7455 88.7358 17.4046C87.5384 16.6282 86.2628 16.0324 84.8597 15.7466C83.4055 15.4502 81.9483 15.4444 80.525 15.9088C79.233 16.3308 78.6738 17.2578 78.9375 18.4388C79.0833 19.0935 79.5159 19.5261 80.103 19.7598C80.8765 20.0669 81.675 20.316 82.4717 20.5574C84.8249 21.27 87.1695 22.0059 89.3451 23.1781C91.5873 24.3861 93.4413 25.9939 94.2891 28.4833C95.7646 32.819 94.5064 37.4444 90.0471 40.1511C87.8464 41.4866 85.442 42.176 82.8869 42.3479C77.6165 42.7013 72.8569 41.222 68.5067 38.3019C67.9109 37.9021 67.8674 37.6366 68.2769 37.0302C69.4656 35.2708 70.6552 33.5133 71.8478 31.7568C72.2572 31.1543 72.5392 31.1099 73.1099 31.5483C75.7007 33.5346 78.6613 34.392 81.8904 34.3418C82.5991 34.3312 83.3427 34.1883 84.0022 33.9324C85.6679 33.2864 85.9798 31.2663 84.5719 30.1674C83.9395 29.674 83.1698 29.3196 82.4128 29.0299C80.4496 28.2776 78.444 27.6394 76.4857 26.8746C74.5235 26.1079 72.7024 25.0862 71.3138 23.4418C69.8315 21.6862 69.2917 19.6236 69.4791 17.3766C69.8615 12.7744 72.685 10.1218 76.7291 8.50918C78.5676 7.77626 80.4989 7.4634 82.4842 7.4885L82.4852 7.48657Z" fill="#E64414"/>
<path d="M101.738 23.4842C101.738 21.4409 101.74 19.3977 101.738 17.3544C101.737 16.4129 101.547 16.2246 100.602 16.2207C99.3796 16.2169 98.1562 16.2236 96.9337 16.2178C96.2114 16.214 96.0588 16.0575 96.0588 15.3294C96.0559 13.2215 96.0559 11.1144 96.0588 9.00646C96.0588 8.345 96.2432 8.17601 96.9066 8.10649C97.4001 8.05531 97.8993 7.9964 98.3754 7.86604C100.242 7.35233 101.169 5.99658 101.468 4.18601C101.64 3.14506 101.679 2.079 101.731 1.02163C101.773 0.170902 101.909 -1.52588e-05 102.745 -1.52588e-05C105.223 -1.52588e-05 107.701 -1.52588e-05 110.178 -1.52588e-05C110.967 -1.52588e-05 111.168 0.200837 111.169 1.00521C111.172 3.06491 111.169 5.12364 111.171 7.18334C111.171 7.93074 111.398 8.16829 112.147 8.17118C114.142 8.17891 116.137 8.17311 118.132 8.17505C118.917 8.17505 119.099 8.35659 119.099 9.13585C119.101 11.1791 119.101 13.2224 119.099 15.2657C119.099 16.0092 118.899 16.2159 118.16 16.2178C116.214 16.2226 114.267 16.2178 112.32 16.2207C111.32 16.2226 111.168 16.3771 111.17 17.3679C111.176 21.4226 111.174 25.4763 111.199 29.531C111.202 30.0708 111.302 30.6193 111.428 31.1465C111.671 32.1672 112.274 32.931 113.202 33.4389C114.268 34.0222 115.403 34.394 116.615 34.2704C117.501 34.1805 117.927 34.5089 118.298 35.2901C119.216 37.2175 120.459 38.9373 121.954 40.4697C122.642 41.1746 122.518 41.6217 121.553 41.8796C118.961 42.5709 116.325 42.6907 113.663 42.458C111.84 42.2986 110.084 41.8747 108.431 41.08C104.949 39.4066 102.908 36.6284 102.162 32.8634C101.8 31.0403 101.741 29.195 101.739 27.3448C101.738 26.0576 101.739 24.7704 101.739 23.4833L101.738 23.4842Z" fill="#E64414"/>
<path d="M126.882 70.4421C127.35 70.0993 127.735 69.8173 128.14 69.5209C129.012 70.8187 130.171 71.6298 131.68 71.876C132.657 72.0354 133.639 72.0103 134.585 71.6752C136.083 71.1451 137.014 70.0973 137.194 68.5137C137.332 67.2902 137.324 66.0504 137.319 64.7709C135.63 66.5409 133.589 67.0266 131.306 66.5583C129.79 66.2464 128.55 65.4266 127.615 64.1828C125.647 61.5679 125.9 57.6851 128.208 55.3222C129.452 54.0495 131.002 53.472 132.772 53.4768C134.546 53.4817 136.046 54.1547 137.378 55.4854V53.7897H138.897C138.897 53.9925 138.897 54.1663 138.897 54.3391C138.897 58.4093 138.908 62.4794 138.888 66.5496C138.884 67.382 138.834 68.2279 138.682 69.0438C138.319 70.9867 137.171 72.3492 135.307 72.9817C132.654 73.8817 130.168 73.5485 128.001 71.6617C127.606 71.3179 127.287 70.8872 126.883 70.4411L126.882 70.4421ZM137.332 59.9669C137.332 59.26 137.341 58.5522 137.325 57.8454C137.321 57.6629 137.279 57.4553 137.183 57.3036C136.106 55.5964 133.669 54.597 131.714 55.0528C129.842 55.4883 128.614 56.6364 128.096 58.4759C127.546 60.4313 127.846 62.2593 129.271 63.7676C131.408 66.0291 134.949 65.6854 136.92 63.082C137.202 62.7093 137.371 62.3327 137.342 61.847C137.305 61.2222 137.333 60.5936 137.333 59.9669H137.332Z" fill="#C50D29"/>
<path d="M122.572 66.4202H121.123V64.656C118.487 67.7112 113.978 67.0092 111.878 64.8143C109.538 62.3693 109.4 58.2857 111.649 55.6427C112.866 54.2126 114.451 53.528 116.312 53.4778C118.158 53.4285 119.728 54.0977 121.125 55.4989V53.7868H122.571V66.4202H122.572ZM121.076 59.99C121.076 59.2822 121.084 58.5754 121.07 57.8685C121.066 57.686 121.028 57.4784 120.934 57.3268C119.855 55.5973 117.411 54.6153 115.426 55.0537C111.517 55.917 110.546 60.7316 112.702 63.4277C114.576 65.7713 118.39 66.117 120.7 63.0211C120.96 62.6726 121.108 62.3211 121.083 61.8711C121.049 61.2463 121.075 60.6177 121.075 59.991L121.076 59.99Z" fill="#C50D29"/>
<path d="M154.493 60.2141H144.192C143.94 61.7388 145.121 63.868 146.643 64.6956C148.655 65.7896 150.895 65.3454 153.048 63.3978C153.39 63.7193 153.736 64.0447 154.112 64.3991C153.236 65.4681 152.139 66.1257 150.856 66.4743C146.895 67.549 143.32 65.3194 142.668 61.2753C142.29 58.9365 142.821 56.7667 144.594 55.0788C146.34 53.416 148.442 53.0481 150.68 53.838C152.902 54.6221 154.072 56.337 154.455 58.6179C154.522 59.0118 154.521 59.4184 154.542 59.8191C154.548 59.9273 154.517 60.0383 154.494 60.2141H154.493ZM152.883 58.7724C152.72 56.6132 150.725 54.8577 148.542 54.9282C146.394 54.9977 144.324 56.8536 144.272 58.7724H152.883Z" fill="#C50D29"/>
<path d="M98.1079 60.0972C98.1099 63.8468 95.3008 66.7012 91.5938 66.7176C87.8684 66.734 85.039 63.8767 85.0371 60.0972C85.0361 56.3235 87.8616 53.471 91.5938 53.4749C95.2844 53.4797 98.106 56.3477 98.1079 60.0972ZM96.5542 60.1223C96.5571 57.1752 94.3845 54.9166 91.5571 54.9262C88.748 54.9359 86.5754 57.1907 86.5763 60.0972C86.5763 63.0115 88.7423 65.2566 91.5561 65.2595C94.3806 65.2634 96.5513 63.0318 96.5542 60.1214V60.1223Z" fill="#C50D29"/>
<path d="M71.0635 54.6791C70.767 55.1387 70.5082 55.5414 70.2379 55.9614C69.3775 55.4033 68.4939 55.0064 67.4839 54.9456C66.695 54.8983 65.9408 55.0016 65.2533 55.4091C64.7009 55.7355 64.3388 56.2009 64.248 56.8604C64.1592 57.5045 64.3639 58.0366 64.923 58.3388C65.4831 58.641 66.0905 58.8651 66.693 59.0765C67.5708 59.3836 68.4794 59.6077 69.3466 59.9427C70.6801 60.4584 71.5714 61.367 71.5666 62.8927C71.5618 64.4407 70.8337 65.5762 69.4374 66.229C67.7929 66.9977 66.1156 66.818 64.4576 66.2531C63.6455 65.977 62.9145 65.5444 62.2627 64.9225C62.5707 64.5343 62.8662 64.1606 63.1955 63.7454C63.3703 63.8719 63.52 63.9849 63.6745 64.0911C64.9645 64.9766 66.358 65.5057 67.9406 65.1465C68.4099 65.0403 68.8908 64.8086 69.2693 64.5111C70.3711 63.643 70.2553 62.0835 69.0202 61.4259C68.3346 61.0609 67.5573 60.863 66.8147 60.609C66.0866 60.3599 65.3315 60.1803 64.6208 59.8906C61.8706 58.7724 62.3902 55.8359 63.8145 54.6201C64.5068 54.0292 65.2986 53.6584 66.1948 53.5386C67.9387 53.3059 69.5368 53.7269 71.0635 54.68V54.6791Z" fill="#C50D29"/>
<path d="M78.2794 53.7482H82.5852V55.186H78.3074C78.2939 55.3898 78.2746 55.5433 78.2746 55.6968C78.2727 57.8531 78.2678 60.0094 78.2746 62.1656C78.2833 64.5362 79.5019 65.5579 81.859 65.1881C82 65.1658 82.1429 65.1562 82.3303 65.1369C82.4201 65.5898 82.505 66.0233 82.589 66.4492C80.0089 67.6852 76.8551 65.779 76.7672 62.9043C76.6948 60.5414 76.7257 58.1737 76.7441 55.8088C76.7479 55.3212 76.6224 55.1696 76.127 55.1908C75.1662 55.2314 74.2015 55.2024 73.1992 55.2024V53.7549C73.4725 53.7549 73.7545 53.7549 74.0364 53.7549C74.7606 53.7549 75.4858 53.7289 76.2081 53.7646C76.6514 53.7868 76.7528 53.6217 76.7412 53.2103C76.7141 52.263 76.7325 51.3148 76.7325 50.3269H78.2785V53.7482H78.2794Z" fill="#C50D29"/>
<path d="M101.821 53.78H103.351V55.382C104.723 53.8061 106.353 53.3117 108.304 53.5232C108.234 53.9963 108.168 54.4463 108.101 54.9079C107.694 54.9291 107.311 54.934 106.932 54.9726C105.841 55.0836 104.953 55.5973 104.22 56.393C103.636 57.0275 103.313 57.7275 103.334 58.6459C103.39 61.0735 103.342 63.503 103.364 65.9316C103.368 66.369 103.231 66.5032 102.816 66.4636C102.5 66.4337 102.18 66.4578 101.822 66.4578V53.781L101.821 53.78Z" fill="#C50D29"/>
<path d="M166.418 9.27681C166.036 9.88419 165.656 10.4935 165.272 11.0999C164.962 11.5895 164.863 11.5876 164.547 11.0874C164.165 10.4848 163.788 9.88033 163.408 9.27681C163.358 9.29033 163.309 9.30288 163.258 9.3164C163.258 9.7239 163.258 10.1324 163.258 10.5399C163.258 10.9744 163.268 11.4089 163.246 11.8425C163.241 11.9313 163.116 12.0134 163.046 12.0994C162.973 12.0144 162.847 11.9362 162.836 11.8444C162.806 11.5905 162.823 11.3307 162.823 11.0739C162.823 10.2212 162.821 9.36854 162.825 8.51589C162.825 8.3498 162.851 8.18467 162.865 8.01859C162.922 7.99638 162.978 7.9732 163.035 7.95099C163.646 8.906 164.257 9.86005 164.912 10.8856C165.574 9.85233 166.184 8.90021 166.795 7.94713C166.851 7.97223 166.907 7.99638 166.962 8.02148C166.974 8.15571 166.995 8.28896 166.996 8.42319C166.999 9.48538 167.007 10.5466 166.989 11.6078C166.986 11.7739 166.874 12.0714 166.79 12.0791C166.434 12.1129 166.572 11.801 166.569 11.6272C166.553 10.8604 166.562 10.0928 166.562 9.32509C166.514 9.30964 166.464 9.29322 166.416 9.27777L166.418 9.27681Z" fill="#E64414"/>
<path d="M161.108 8.38361C161.108 9.48733 161.12 10.4983 161.096 11.5094C161.091 11.7035 161.296 12.081 160.902 12.0839C160.477 12.0868 160.687 11.6919 160.68 11.4843C160.654 10.6326 160.647 9.77895 160.678 8.92823C160.694 8.49852 160.548 8.35947 160.129 8.37492C159.924 8.38264 159.715 8.26097 159.509 8.19821C159.71 8.13351 159.91 8.02053 160.112 8.0128C160.723 7.98866 161.334 7.99542 161.945 8.0128C162.052 8.0157 162.158 8.12868 162.263 8.19048C162.157 8.25518 162.055 8.36333 161.943 8.37588C161.692 8.40389 161.436 8.38457 161.107 8.38457L161.108 8.38361Z" fill="#E64414"/>
</svg>
