<svg height="182.574186" viewBox="0 0 36.577623 12.242483" width="547.722558" xmlns="http://www.w3.org/2000/svg" xmlns:xlink="http://www.w3.org/1999/xlink"><symbol id="a" overflow="visible"/><symbol id="b" overflow="visible"/><symbol id="c" overflow="visible"/><symbol id="d" overflow="visible"/><g transform="translate(-733.31049 -498.68342)"><use fill="#073859" height="100%" transform="matrix(.35277777 0 0 .35277777 1.664673 .652193)" width="100%" x="71.138298" xlink:href="#a" y="96.321404"/><use fill="#073859" height="100%" transform="matrix(.35277777 0 0 .35277777 1.664673 .652193)" width="100%" x="129.8183" xlink:href="#a" y="96.321404"/><use fill="#073859" height="100%" transform="matrix(.35277777 0 0 .35277777 1.664673 .652193)" width="100%" x="159.1463" xlink:href="#a" y="96.321404"/><use fill="#073859" height="100%" transform="matrix(.35277777 0 0 .35277777 1.664673 .652193)" width="100%" x="141.81662" xlink:href="#a" y="123.45964"/><use fill="#073859" height="100%" transform="matrix(.35277777 0 0 .35277777 1.664673 .652193)" width="100%" x="183.12062" xlink:href="#a" y="123.45964"/><use fill="#0fb0dc" height="100%" transform="matrix(.35277777 0 0 .35277777 1.664673 .652193)" width="100%" x="141.8183" xlink:href="#b" y="157.78156"/><use fill="#fff" height="100%" transform="matrix(.35277779 0 0 .35277779 23.037533 23.410285)" width="100%" x="123.9363" xlink:href="#c" y="386.39661"/><use fill="#009c7d" height="100%" transform="matrix(.35277778 0 0 .35277778 271.01807 240.82177)" width="100%" x="186.1642" xlink:href="#d" y="753.54327"/><use fill="#009c7d" height="100%" transform="matrix(.35277778 0 0 .35277778 271.01807 240.82177)" width="100%" x="224.3082" xlink:href="#d" y="753.54327"/><use fill="#009c7d" height="100%" transform="matrix(.35277778 0 0 .35277778 271.01807 240.82177)" width="100%" x="108.1002" xlink:href="#d" y="775.9433"/><use fill="#009c7d" height="100%" transform="matrix(.35277778 0 0 .35277778 271.01807 240.82177)" width="100%" x="176.3082" xlink:href="#d" y="775.9433"/><use fill="#009c7d" height="100%" transform="matrix(.35277778 0 0 .35277778 271.01807 240.82177)" width="100%" x="229.4442" xlink:href="#d" y="775.9433"/><path d="m760.62734 501.22727s.60633-.14331 1.20165.28939c0 0 .57602-.72347 1.64675-.79513 1.07074-.0703 1.79007.62288 1.79007.62288s.86128-.45889 1.7322.27974l-2.19108 2.19246s-.36243.39963-.61737-.17777c0 0-.35277-.84887-1.00872-.1943l-1.39733 1.39182s-.60634.61322-.60634-.17915v-.75379s.022-.98943-.74414-.45888l-.91777.60633s-.28388.23289-.28388-.23013v-1.00459s-.005-1.33807 1.39596-1.58888" fill="#f3781e"/><path d="m761.42109 500.29296c0 .34589-.2825.62701-.62839.62701-.34727 0-.62838-.28112-.62838-.62701 0-.34726.28111-.62838.62838-.62838.34589 0 .62839.28112.62839.62838" fill="#f3781e"/><path d="m764.275 499.62461c0 .44649-.3638.80891-.81028.80891-.44649 0-.80891-.36242-.80891-.80891 0-.44786.36242-.8089.80891-.8089.44648 0 .81028.36104.81028.8089" fill="#f3781e"/><path d="m766.49227 500.41974c0 .27974-.22738.50712-.50712.50712s-.50712-.22738-.50712-.50712.22738-.50712.50712-.50712.50712.22738.50712.50712" fill="#f3781e"/><g fill="#0f2870"><path d="m734.72711 506.99574c-.38448 0-.58705.25494-.58705.63666v1.4869c.16123.0592.29628.10335.53468.10335.50988 0 .791-.46026.791-1.17409 0-.74689-.29766-1.05282-.73863-1.05282m.0317 2.84565c-.27837 0-.46578-.051-.61874-.11024v1.06246h-.69729v-4.30774h.31557c.16123 0 .29628.16123.35691.28112.15159-.19568.38861-.37483.78962-.37483.84887 0 1.31603.69729 1.31603 1.63987 0 1.10518-.63666 1.80936-1.4621 1.80936"/><path d="m737.91313 506.96956c-.41617 0-.64492.31419-.6711.77308h1.23334c-.01-.47542-.17915-.77308-.56224-.77308m1.26642 1.34359h-1.94579c.0248.62011.339.9095.8158.9095.30592 0 .50849-.0689.74827-.16261.0248-.008.0661-.0179.0923-.0179.11989 0 .16123.0772.14469.22186l-.0331.39137c-.22186.11024-.56224.18741-1.01148.18741-.85852 0-1.48691-.67248-1.48691-1.71704 0-1.079.52642-1.73357 1.45246-1.73357.83234 0 1.24161.67937 1.24161 1.58888 0 .0923-.01.23013-.0179.33211"/><path d="m741.43126 507.25068c-.13642-.0854-.32246-.13643-.58566-.13643-.37483 0-.58705.27148-.58705.69729v1.96233h-.69729v-3.288h.31557c.1447 0 .28802.0854.37346.39825.17776-.31281.40789-.44924.71382-.44924.11989 0 .2632.0165.34726.0427.10198.0248.13643.0675.13643.15296zm0 0"/><path d="m745.36418 509.77387v-2.31924c0-.28939-.16123-.49334-.49196-.49334-.38171 0-.59531.28939-.59531.57878v2.2338h-.69591v-2.30271c0-.3321-.17914-.50987-.5016-.50987-.42582 0-.66146.33211-.66146.75654v2.05604h-.69867v-3.288h.3073c.15297 0 .27975.0923.37346.33073.19567-.24667.46577-.42444.87367-.42444.46853 0 .68075.19568.79926.45889.23978-.27285.49334-.45889.96876-.45889.68902 0 1.01975.39136 1.01975.9853v2.39641zm0 0"/><path d="m748.5006 507.10598c-.13643 0-.25494-.008-.36518-.008-.55397 0-.92604.36518-.92604 1.09554 0 .72347.28801 1.04593.6463 1.04593.42306 0 .64492-.25494.64492-.66284zm.0593 2.66789-.0165-.3142c-.16261.21222-.41755.3831-.8158.3831-.74827 0-1.25815-.57878-1.25815-1.64951 0-1.0542.72209-1.73358 1.7005-1.73358.20395 0 .52641.0262.66146.051.28939.0593.36656.11025.36656.29766v2.96554zm0 0"/><path d="m751.70178 509.77387v-2.24207c0-.34038-.16261-.57051-.55259-.57051-.4768 0-.74828.35691-.74828.85852v1.95406h-.6959v-3.288h.30454c.15434 0 .28112.0923.37483.33073.22048-.2384.49196-.42444.95222-.42444.72072 0 1.06109.45062 1.06109 1.11346v2.26825zm0 0"/><path d="m754.18225 506.96956c-.41617 0-.64492.31419-.6711.77308h1.23334c-.01-.47542-.17914-.77308-.56224-.77308m1.26642 1.34359h-1.94717c.0262.62011.34038.9095.81718.9095.30592 0 .50849-.0689.74827-.16261.0234-.008.0661-.0179.0923-.0179.11851 0 .16261.0772.14332.22186l-.0331.39137c-.22186.11024-.56086.18741-1.0101.18741-.85852 0-1.4869-.67248-1.4869-1.71704 0-1.079.52641-1.73357 1.45245-1.73357.83233 0 1.24023.67937 1.24023 1.58888 0 .0923-.008.23013-.0165.33211"/><path d="m757.82716 509.77387v-2.24207c0-.34038-.16123-.57051-.55121-.57051-.47681 0-.74828.35691-.74828.85852v1.95406h-.69591v-3.288h.30593c.15158 0 .27974.0923.37345.33073.22048-.2384.49196-.42444.95084-.42444.72072 0 1.06247.45062 1.06247 1.11346v2.26825zm0 0"/><path d="m760.7927 509.74768c-.15296.0606-.34864.0937-.71382.0937-.47543 0-.83234-.339-.83234-.92604v-1.86034h-.50987v-.56913h.50987v-.78962h.38172c.18741 0 .31557.12678.31557.29628v.49334h.49196c.21222 0 .3321.12815.3321.33073v.2384h-.82406v1.76664c0 .28112.10886.4079.40652.4079.13643 0 .22187-.0248.29766-.051.11988-.0331.1695-.008.16261.0854zm0 0"/><path d="m764.25847 509.74768c-.15297.0606-.34727.0937-.71245.0937-.4768 0-.83371-.339-.83371-.92604v-1.86034h-.5085v-.56913h.5085v-.78962h.38309c.18604 0 .31419.12678.31419.29628v.49334h.49197c.21359 0 .3321.12815.3321.33073v.2384h-.82407v1.76664c0 .28112.11025.4079.4079.4079.13643 0 .22049-.0248.29766-.051.11851-.0331.1695-.008.16123.0854zm0 0"/><path d="m765.50421 509.84139c-.35829 0-.75654-.0496-.96187-.0841l.0358-.62012c.22049.0579.63665.12678.88332.12678.36519 0 .59394-.15296.59394-.44097 0-.26458-.11025-.40928-.62012-.53606-.5774-.15296-.89297-.38309-.89297-.97703 0-.54432.3831-.91777 1.16444-.91777.33211 0 .51953.0262.67938.0675.15296.0345.19706.10198.18741.23841l-.0345.42443c-.21911-.0841-.46577-.15296-.78961-.15296-.35691 0-.53468.13642-.53468.33211 0 .23702.16261.3321.59531.45061.69591.18604.89986.46716.89986 1.01011 0 .67248-.40652 1.079-1.20579 1.079"/><path d="m768.27821 506.99574c-.45062 0-.61185.30593-.61185.60358v1.55443c.11024.0344.30592.0689.49195.0689.53606 0 .83372-.37483.83372-1.13137 0-.76481-.28939-1.09554-.71382-1.09554m-.17915 2.84565c-.49196 0-.86679-.1006-1.12999-.1943v-4.63986h.32246c.23013 0 .34175.0937.36518.21222.01.0262.01.0427.01.0675v1.4373c.15296-.17915.41617-.33211.74827-.33211.85715 0 1.34084.65457 1.34084 1.66605 0 1.12999-.64492 1.78318-1.65641 1.78318"/></g></g></svg>