<svg width="205" height="54" viewBox="0 0 205 54" xmlns="http://www.w3.org/2000/svg"><title>Logo</title><g fill="none" fill-rule="evenodd"><path d="M101.305 29.005c.264.216.58.402.947.563.368.161.762.242 1.182.242.323 0 .591-.041.807-.123a1.41 1.41 0 0 0 .513-.322c.129-.133.221-.283.279-.453.059-.168.087-.343.087-.526 0-.23-.035-.433-.105-.606a1.279 1.279 0 0 0-.31-.452 1.807 1.807 0 0 0-.515-.328 6.95 6.95 0 0 0-.706-.26 9.473 9.473 0 0 1-.88-.308 3.137 3.137 0 0 1-.75-.435 1.94 1.94 0 0 1-.526-.643c-.132-.256-.198-.573-.198-.953 0-.371.068-.7.203-.984.134-.285.318-.522.552-.712.232-.19.51-.335.833-.434a3.572 3.572 0 0 1 1.052-.148c.306 0 .634.04.985.118.35.079.65.192.898.342.132.083.244.173.335.268.09.096.136.204.136.329a.58.58 0 0 1-.118.322c-.078.115-.175.23-.29.347a6.662 6.662 0 0 0-.273-.223 2.334 2.334 0 0 0-.421-.254 3.46 3.46 0 0 0-.564-.204 2.598 2.598 0 0 0-.688-.087c-.289 0-.53.035-.724.105a1.37 1.37 0 0 0-.47.273.972.972 0 0 0-.261.396c-.054.153-.08.307-.08.464 0 .206.04.384.123.533.083.148.203.279.36.39.157.11.346.212.57.302.223.092.478.183.768.273.289.09.564.2.825.328.26.128.488.287.687.477.198.19.357.414.477.674.12.26.18.572.18.935 0 .413-.067.776-.203 1.09a2.19 2.19 0 0 1-.57.792c-.245.216-.54.376-.883.484-.343.107-.72.16-1.135.16a5.14 5.14 0 0 1-1.268-.15c-.393-.099-.7-.232-.924-.398-.206-.141-.31-.295-.31-.46 0-.091.038-.207.112-.347a2.49 2.49 0 0 1 .26-.397m7.252-1.582c0 .346.03.664.092.953.062.289.165.539.31.75.144.21.337.372.58.488.244.115.552.173.922.173.562 0 .998-.107 1.31-.32.315-.216.516-.57.607-1.065a5.15 5.15 0 0 0 .08-.977v-5.144a.437.437 0 0 0 .098-.012.428.428 0 0 0 .1-.01.467.467 0 0 1 .112-.012c.074 0 .158.01.25.03a.642.642 0 0 1 .44.346.854.854 0 0 1 .08.405v4.248c0 .165-.001.335-.005.508a6.376 6.376 0 0 1-.028.496 3.278 3.278 0 0 1-.241.972 2.21 2.21 0 0 1-.565.786 2.63 2.63 0 0 1-.924.526c-.367.129-.812.193-1.332.193-.894 0-1.565-.197-2.016-.594-.45-.396-.742-.944-.874-1.645a3.643 3.643 0 0 1-.065-.57 14.491 14.491 0 0 1-.013-.631V22.28a.443.443 0 0 0 .1-.012.356.356 0 0 0 .092-.01.401.401 0 0 1 .107-.012c.073 0 .157.01.248.03a.744.744 0 0 1 .255.112.617.617 0 0 1 .2.235c.053.103.08.238.08.403v4.396zm6.416 1.582c.264.216.58.402.948.563.367.161.762.242 1.183.242.321 0 .591-.041.804-.123.215-.083.387-.191.515-.322.128-.133.221-.283.28-.453.056-.168.085-.343.085-.526 0-.23-.035-.433-.105-.606a1.279 1.279 0 0 0-.309-.452 1.817 1.817 0 0 0-.515-.328 7.012 7.012 0 0 0-.706-.26 9.331 9.331 0 0 1-.88-.308 3.15 3.15 0 0 1-.75-.435 1.944 1.944 0 0 1-.527-.643c-.131-.256-.197-.573-.197-.953 0-.371.068-.7.202-.984.135-.285.32-.522.552-.712a2.44 2.44 0 0 1 .834-.434 3.56 3.56 0 0 1 1.052-.148c.306 0 .634.04.985.118.35.079.65.192.898.342.132.083.243.173.335.268.09.096.136.204.136.329 0 .098-.04.206-.118.322-.079.115-.175.23-.291.347a6.122 6.122 0 0 0-.272-.223 2.334 2.334 0 0 0-.422-.254 3.484 3.484 0 0 0-.564-.204 2.601 2.601 0 0 0-.687-.087c-.289 0-.53.035-.724.105a1.35 1.35 0 0 0-.472.273.97.97 0 0 0-.26.396c-.053.153-.08.307-.08.464 0 .206.042.384.124.533.082.148.202.279.36.39.157.11.346.212.569.302.223.092.48.183.77.273.288.09.562.2.822.328.261.128.49.287.69.477a2.2 2.2 0 0 1 .475.674c.121.26.18.572.18.935 0 .413-.067.776-.202 1.09a2.19 2.19 0 0 1-.57.792 2.42 2.42 0 0 1-.884.484 3.78 3.78 0 0 1-1.133.16 5.13 5.13 0 0 1-1.27-.15c-.392-.099-.7-.232-.922-.398-.207-.141-.31-.295-.31-.46 0-.091.037-.207.111-.347a2.49 2.49 0 0 1 .26-.397m8.295-5.766h-2.626a3.938 3.938 0 0 0-.024-.112.453.453 0 0 1-.012-.112v-.125c0-.158.061-.298.185-.418s.313-.18.57-.18h5.69c0 .041.003.08.012.112 0 .033.002.065.006.093a.654.654 0 0 1-.179.548c-.125.13-.315.194-.57.194h-1.958v7.337h-1.094V23.24zm6.662.272l-1.402 3.955h2.79l-1.388-3.955zm2.502 7.065l-.83-2.23h-3.346l-.806 2.23h-1.093l3.003-8.218c.057-.024.144-.05.26-.074.116-.024.231-.037.346-.037.157 0 .3.035.428.105.128.07.23.205.303.403l2.863 7.821h-1.128zm3.275 0h-1.093V22.28a.43.43 0 0 0 .098-.011.435.435 0 0 0 .1-.011.535.535 0 0 1 .112-.012.99.99 0 0 1 .242.032c.088.02.172.057.256.111a.61.61 0 0 1 .205.235c.053.103.08.238.08.403v7.55zm6.988-1.648V22.28a.386.386 0 0 0 .09-.011.474.474 0 0 0 .093-.011.609.609 0 0 1 .116-.01.95.95 0 0 1 .235.03c.083.02.158.058.228.111a.58.58 0 0 1 .173.236c.045.103.068.238.068.402v7.55h-1.003l-4.217-6.434v6.434h-1.003v-8.263c.05-.018.12-.034.21-.047.092-.013.183-.02.274-.02.183 0 .325.031.427.092a.918.918 0 0 1 .292.317l4.017 6.272zm5.645-5.417l-1.4 3.955h2.788l-1.388-3.955zm2.502 7.065l-.828-2.23h-3.348l-.806 2.23h-1.094l3.004-8.218c.058-.024.145-.05.26-.074.117-.024.232-.037.348-.037.156 0 .299.035.427.105.128.07.229.205.303.403l2.862 7.821h-1.128zm4.058-.901a9.5 9.5 0 0 0 1.015-.049 2.51 2.51 0 0 0 .793-.205 1.18 1.18 0 0 0 .519-.45c.123-.198.186-.462.186-.792 0-.289-.059-.525-.174-.71a1.288 1.288 0 0 0-.47-.446 2.008 2.008 0 0 0-.674-.227 4.767 4.767 0 0 0-.786-.063h-1.188v2.942h.779zm2.151-5.369c0-.255-.05-.464-.153-.625a1.033 1.033 0 0 0-.428-.372 2.187 2.187 0 0 0-.649-.18 6.368 6.368 0 0 0-.822-.048 8.66 8.66 0 0 0-.52.013 2.86 2.86 0 0 0-.358.036v2.724h1.174c.512 0 .932-.134 1.262-.402.33-.269.494-.65.494-1.146zm1.466 3.89c0 .463-.08.848-.235 1.154a1.855 1.855 0 0 1-.67.73c-.29.183-.64.31-1.054.385a7.93 7.93 0 0 1-1.376.111h-2.143v-8.262c.339-.034.66-.06.967-.081.305-.02.657-.032 1.054-.032.57 0 1.052.046 1.444.136.392.092.708.223.949.397.239.174.413.39.52.65.107.26.16.555.16.885a2.14 2.14 0 0 1-.427 1.325c-.12.157-.25.284-.39.384a2.174 2.174 0 0 1-.385.222c.132.033.292.09.477.168.187.078.36.193.52.341.16.148.3.343.416.582.115.24.173.542.173.906zm1.378-5.916a.444.444 0 0 0 .1-.01.447.447 0 0 0 .1-.012.494.494 0 0 1 .11-.011c.077 0 .157.01.245.03a.752.752 0 0 1 .247.112.62.62 0 0 1 .2.236.865.865 0 0 1 .081.402v6.603h2.874c.264 0 .454.064.57.192a.673.673 0 0 1 .173.466.899.899 0 0 1-.007.112 1.004 1.004 0 0 0-.004.087v.09h-4.689v-8.296zm6.843 3.483h2.811v.96h-2.811v2.93h3.144c.274 0 .47.062.59.19a.67.67 0 0 1 .173.567.579.579 0 0 0-.007.08v.086h-4.983v-8.284h4.785c.017.05.026.092.026.13v.128c0 .19-.055.347-.16.476-.109.127-.307.19-.596.19h-2.972v2.547zm-64.086 11.274h2.813v.958h-2.813v2.931h3.147c.273 0 .468.063.589.19a.668.668 0 0 1 .172.567.542.542 0 0 0-.005.08v.087h-4.985v-8.285h4.786c.017.05.025.092.025.13v.128a.71.71 0 0 1-.161.476c-.107.127-.306.19-.595.19h-2.973v2.548zm10.235 3.164v-6.647a.417.417 0 0 0 .09-.011.433.433 0 0 0 .094-.012.614.614 0 0 1 .116-.01c.074 0 .153.01.235.03a.637.637 0 0 1 .228.111c.07.055.128.132.173.237a.999.999 0 0 1 .068.402v7.548h-1.004l-4.215-6.433v6.433h-1.003v-8.262a1.773 1.773 0 0 1 .484-.067c.181 0 .324.031.428.093a.91.91 0 0 1 .29.317l4.016 6.271zm3.856-3.164h2.813v.958h-2.813v2.931h3.148c.273 0 .468.063.588.19.12.128.179.286.179.475a.755.755 0 0 1-.006.092.547.547 0 0 0-.006.08v.087h-4.985v-8.285h4.787a.39.39 0 0 1 .026.13v.128c0 .19-.054.348-.162.476-.107.127-.306.19-.595.19h-2.974v2.548zm9.019-1.133c0-.307-.047-.56-.143-.758a1.092 1.092 0 0 0-.406-.467 1.712 1.712 0 0 0-.644-.229 5.144 5.144 0 0 0-.833-.062 7.28 7.28 0 0 0-.927.045h.023v3.111h.89c.305 0 .581-.029.828-.087.247-.059.462-.153.644-.285.18-.133.32-.302.42-.51.1-.207.148-.46.148-.758m1.127-.061c0 .346-.05.657-.148.928-.1.274-.232.51-.397.707a2.33 2.33 0 0 1-1.276.782l2.267 3.59a.947.947 0 0 1-.284.087 1.868 1.868 0 0 1-.298.026.985.985 0 0 1-.88-.484l-1.93-3.022h-1.1v3.393h-1.083v-8.265c.297-.04.618-.068.96-.085.344-.016.671-.025.986-.025 1.131 0 1.944.192 2.44.575.496.385.743.983.743 1.793m4.943 5.286a3.145 3.145 0 0 0 1.145-.21 2.39 2.39 0 0 0 .365-.18c.1-.063.173-.119.223-.169v-2.18h-1.733v-.88h2.76v3.504a1.641 1.641 0 0 1-.317.28 3.39 3.39 0 0 1-.595.334 4.692 4.692 0 0 1-.853.285 4.789 4.789 0 0 1-1.108.117c-.636 0-1.185-.108-1.648-.322a3.048 3.048 0 0 1-1.144-.904 3.891 3.891 0 0 1-.668-1.38 6.688 6.688 0 0 1-.216-1.755c0-.618.074-1.19.222-1.714a3.68 3.68 0 0 1 .683-1.351c.306-.376.696-.67 1.172-.886.475-.215 1.033-.322 1.677-.322.298 0 .59.035.88.105.289.071.545.162.768.275.223.112.405.236.545.373s.21.268.21.39a.72.72 0 0 1-.098.335 1.98 1.98 0 0 1-.223.334h-.21a2.02 2.02 0 0 0-.298-.284 2.827 2.827 0 0 0-.427-.279 2.49 2.49 0 0 0-.545-.21 2.623 2.623 0 0 0-.676-.082c-.504 0-.92.097-1.251.286-.33.19-.594.44-.792.748-.2.31-.337.664-.417 1.06a6.352 6.352 0 0 0-.115 1.226c0 .437.042.863.129 1.276.087.412.235.78.444 1.102.212.322.49.583.83.78.343.199.77.298 1.281.298m6.995-2.713v3.434h-1.094v-3.408l-2.663-4.797a1.08 1.08 0 0 1 .285-.099c.115-.024.235-.038.36-.038.214 0 .376.044.483.13.107.088.206.213.297.379l1.797 3.408 1.799-3.31c.09-.157.197-.296.321-.415.125-.12.294-.18.508-.18.091 0 .182.008.274.025.09.017.189.041.296.074l-2.663 4.797zm8.448-3.631l-1.4 3.954h2.787l-1.387-3.954zm2.503 7.064l-.832-2.23H145.6l-.806 2.23H143.7l3.003-8.218a1.45 1.45 0 0 1 .26-.073c.116-.025.231-.038.346-.038.157 0 .3.035.429.105.126.07.228.205.302.403l2.862 7.821h-1.126zm2.903-3.153c0 .347.03.664.092.952.063.29.165.54.309.75.144.211.339.374.582.49.243.115.551.173.92.173.562 0 .999-.107 1.312-.321.313-.216.515-.57.606-1.064.053-.272.08-.598.08-.977v-5.145a.375.375 0 0 0 .098-.012.486.486 0 0 0 .1-.01.448.448 0 0 1 .112-.011c.074 0 .157.01.248.03.092.02.174.058.249.111a.66.66 0 0 1 .193.236c.054.104.08.237.08.402v4.25c0 .164 0 .334-.004.507a8.744 8.744 0 0 1-.027.495 3.291 3.291 0 0 1-.244.973 2.193 2.193 0 0 1-.564.786c-.247.225-.556.4-.924.527-.367.128-.811.192-1.333.192-.893 0-1.564-.197-2.015-.593-.45-.396-.742-.945-.873-1.646a3.63 3.63 0 0 1-.066-.57 14.32 14.32 0 0 1-.013-.63v-5.037a.382.382 0 0 0 .1-.012.395.395 0 0 0 .093-.01.377.377 0 0 1 .105-.011c.075 0 .158.01.249.03.091.02.176.058.255.111a.634.634 0 0 1 .2.236c.053.103.08.237.08.402v4.396zm8.595-4.184h-2.627c-.008-.043-.017-.079-.024-.112a.457.457 0 0 1-.012-.111v-.125c0-.16.062-.298.185-.419.124-.12.314-.18.57-.18h5.69a.4.4 0 0 0 .013.113.65.65 0 0 0 .005.092.648.648 0 0 1-.18.548c-.123.13-.313.194-.57.194h-1.956v7.338h-1.094v-7.338zm5.885 2.558h3.933v-3.517a.439.439 0 0 0 .1-.01.482.482 0 0 0 .1-.012.452.452 0 0 1 .113-.01c.074 0 .155.01.241.03.087.021.17.058.25.112a.64.64 0 0 1 .199.236.86.86 0 0 1 .08.403v7.548h-1.083v-3.832h-3.932v3.832h-1.083v-8.297a.441.441 0 0 0 .1-.01.48.48 0 0 0 .099-.012.459.459 0 0 1 .111-.01c.084 0 .17.01.262.03a.676.676 0 0 1 .25.112.618.618 0 0 1 .186.236.938.938 0 0 1 .075.403v2.768zm12.539.598c0-.445-.041-.866-.124-1.263a3.236 3.236 0 0 0-.402-1.045 2.015 2.015 0 0 0-.744-.712c-.31-.174-.687-.26-1.133-.26-.47 0-.864.086-1.177.26a2.103 2.103 0 0 0-.762.712 3.13 3.13 0 0 0-.415 1.045 6.177 6.177 0 0 0-.125 1.263c0 .446.042.873.125 1.28.084.41.22.773.409 1.091.19.318.44.568.749.754.31.187.696.28 1.159.28.454 0 .838-.093 1.152-.28.314-.186.566-.436.756-.754.19-.318.326-.681.408-1.09a6.41 6.41 0 0 0 .124-1.28m1.127-.012c0 .595-.067 1.157-.205 1.685a4.025 4.025 0 0 1-.637 1.387 3.13 3.13 0 0 1-1.12.948c-.458.236-1.01.353-1.655.353-.636 0-1.178-.12-1.629-.359a3.09 3.09 0 0 1-1.095-.96 4.058 4.058 0 0 1-.613-1.394 6.916 6.916 0 0 1-.192-1.648c0-.569.07-1.112.21-1.628.14-.517.36-.97.657-1.363a3.217 3.217 0 0 1 1.134-.936c.458-.231 1.004-.346 1.64-.346.62 0 1.15.111 1.592.335.441.222.805.527 1.089.91.285.383.494.836.626 1.357.132.52.198 1.073.198 1.659m5.495-1.753c0-.307-.046-.56-.142-.758a1.103 1.103 0 0 0-.407-.467 1.717 1.717 0 0 0-.643-.229 5.144 5.144 0 0 0-.834-.062 7.335 7.335 0 0 0-.926.045h.022v3.111h.89c.304 0 .58-.029.827-.087.249-.059.464-.153.644-.285.182-.133.322-.302.421-.51.1-.207.148-.46.148-.758m1.127-.061c0 .346-.05.657-.148.928-.099.274-.232.51-.396.707a2.317 2.317 0 0 1-.576.497c-.22.132-.453.226-.7.285l2.267 3.59a.927.927 0 0 1-.286.087 1.848 1.848 0 0 1-.297.026.99.99 0 0 1-.88-.484l-1.93-3.022h-1.1v3.393h-1.083v-8.265c.298-.04.618-.068.96-.085.343-.016.672-.025.986-.025 1.132 0 1.945.192 2.44.575.496.385.743.983.743 1.793m2.62 6.007h-1.093v-8.296a.373.373 0 0 0 .1-.012.538.538 0 0 0 .099-.01.49.49 0 0 1 .112-.011c.075 0 .154.01.242.03a.81.81 0 0 1 .254.111.61.61 0 0 1 .205.236.87.87 0 0 1 .08.402v7.55zm3.638-7.338h-2.626l-.025-.112a.457.457 0 0 1-.012-.111v-.125c0-.16.062-.298.186-.419.124-.12.313-.18.57-.18h5.69c0 .042.002.08.01.113 0 .032.003.064.007.092a.649.649 0 0 1-.18.548c-.123.13-.313.194-.568.194H194.8v7.338h-1.095v-7.338zm8.084 3.904v3.434h-1.093v-3.408l-2.663-4.797c.076-.04.168-.074.285-.099a1.72 1.72 0 0 1 .36-.038c.214 0 .376.044.482.13.107.088.206.213.297.379l1.798 3.408 1.798-3.31c.09-.157.199-.296.322-.415.124-.12.293-.18.507-.18.091 0 .183.008.274.025.091.017.19.041.296.074l-2.663 4.797z" fill="#342B7A"/><path d="M107.375 48.942c0-.446-.043-.866-.125-1.263a3.263 3.263 0 0 0-.402-1.046 2.006 2.006 0 0 0-.744-.712c-.309-.174-.686-.26-1.133-.26-.471 0-.862.086-1.177.26-.313.173-.568.41-.761.712-.195.301-.333.65-.415 1.046a6.178 6.178 0 0 0-.125 1.263c0 .446.042.872.125 1.28.082.409.218.773.408 1.09.19.317.44.57.75.755.31.186.696.279 1.158.279.454 0 .839-.093 1.152-.28a2.14 2.14 0 0 0 .756-.753c.19-.318.326-.682.408-1.09.082-.409.125-.835.125-1.281m1.126-.012c0 .595-.068 1.158-.204 1.686a4.054 4.054 0 0 1-.638 1.387 3.128 3.128 0 0 1-1.12.948c-.458.236-1.01.353-1.655.353-.634 0-1.178-.12-1.628-.36a3.085 3.085 0 0 1-1.096-.959 4.081 4.081 0 0 1-.613-1.394 6.993 6.993 0 0 1-.192-1.647c0-.571.071-1.114.21-1.629.14-.517.36-.971.656-1.364a3.242 3.242 0 0 1 1.134-.935c.459-.231 1.005-.347 1.641-.347.62 0 1.15.112 1.592.336.441.222.805.526 1.09.91.285.383.492.836.626 1.355.132.521.197 1.075.197 1.66m2.57-.687h2.813v.947h-2.813v3.933h-1.082v-8.285h4.787c.017.05.026.093.026.13v.13c0 .19-.054.348-.162.473-.108.128-.31.192-.607.192h-2.962v2.48zm7.769 4.88h-1.095v-8.296a.45.45 0 0 0 .101-.011.441.441 0 0 0 .1-.011.528.528 0 0 1 .112-.012c.074 0 .155.01.241.031a.847.847 0 0 1 .255.112.615.615 0 0 1 .205.235c.054.104.08.238.08.404v7.548zm5.767-5.946c0-.306-.046-.56-.141-.758a1.101 1.101 0 0 0-.408-.465 1.705 1.705 0 0 0-.643-.23 5.066 5.066 0 0 0-.834-.062c-.197 0-.371.004-.52.01a6.07 6.07 0 0 0-.406.034h.022v3.112h.89c.305 0 .582-.029.83-.087.246-.058.46-.155.64-.286.183-.133.324-.303.422-.51.1-.207.148-.459.148-.758m1.127-.062c0 .348-.049.659-.148.93-.1.273-.23.51-.397.708a2.268 2.268 0 0 1-.575.494c-.22.133-.453.228-.7.286l2.266 3.59a.976.976 0 0 1-.284.088 1.994 1.994 0 0 1-.298.026.988.988 0 0 1-.878-.484l-1.932-3.022h-1.1v3.393h-1.082V44.86c.297-.041.617-.07.96-.087.343-.016.67-.025.985-.025 1.131 0 1.944.193 2.44.577.496.383.743.981.743 1.79m2.624 1.195h2.812v.958h-2.812v2.93h3.147c.273 0 .47.065.588.192.12.127.18.286.18.474a.74.74 0 0 1-.006.092.588.588 0 0 0-.006.08v.087h-4.985V44.84h4.787a.439.439 0 0 1 .026.129v.129c0 .19-.056.348-.162.475-.107.127-.306.19-.595.19h-2.974v2.548zm5.012-3.483a.428.428 0 0 0 .1-.011.438.438 0 0 0 .099-.011.542.542 0 0 1 .112-.012c.075 0 .156.01.243.031.086.021.17.059.248.112a.63.63 0 0 1 .199.235.86.86 0 0 1 .081.403v6.602h2.875c.264 0 .454.065.569.193a.674.674 0 0 1 .174.465.776.776 0 0 1-.007.113c-.003.032-.006.061-.006.086v.09h-4.687v-8.296zm8.985 1.231l-1.402 3.954h2.788l-1.386-3.954zm2.501 7.065l-.83-2.231h-3.346l-.805 2.23h-1.094l3.004-8.217a1.777 1.777 0 0 1 .606-.112c.157 0 .3.035.428.106.128.07.229.205.303.403l2.862 7.82h-1.128zm7.421-1.648v-6.648a.49.49 0 0 0 .091-.01.492.492 0 0 0 .092-.012.555.555 0 0 1 .117-.012c.073 0 .152.011.235.03a.668.668 0 0 1 .228.113c.07.054.127.133.173.236.045.103.068.237.068.402v7.549h-1.004l-4.215-6.433v6.433h-1.003v-8.262c.049-.018.12-.034.209-.047a1.89 1.89 0 0 1 .273-.021c.183 0 .325.03.427.093a.905.905 0 0 1 .292.316l4.017 6.273zm7.886-2.572c0-.463-.045-.89-.136-1.282a2.486 2.486 0 0 0-.484-1.016 2.252 2.252 0 0 0-.921-.663c-.385-.157-.866-.236-1.444-.236-.165 0-.335.004-.513.011a6.815 6.815 0 0 0-.526.045v6.448h1.028c.552 0 1.022-.086 1.404-.259.385-.174.693-.409.929-.707a2.8 2.8 0 0 0 .508-1.046 5.2 5.2 0 0 0 .155-1.295m1.104-.066c0 .752-.124 1.439-.371 2.064a3.403 3.403 0 0 1-1.163 1.517c-.322.23-.71.406-1.163.526a6.27 6.27 0 0 1-1.584.18h-1.929v-8.252c.437-.048.823-.083 1.156-.099.334-.016.646-.025.934-.025.792 0 1.452.108 1.98.323.528.214.95.508 1.268.88.317.37.542.805.674 1.3.132.496.198 1.025.198 1.586" fill="#06A38F"/><path d="M22.804 26.424c0 .624-.2 1.363-.593 2.216-.396.848-.82 1.647-1.276 2.394a13.56 13.56 0 0 0-1.53-1.026 16.313 16.313 0 0 0-2.021-.998 17.538 17.538 0 0 0-2.333-.778 9.87 9.87 0 0 0-2.459-.31c-.457 0-.935.03-1.434.095a4.2 4.2 0 0 0-1.338.373 2.68 2.68 0 0 0-.996.81c-.27.348-.403.816-.403 1.396 0 1.414 1.513 2.448 4.544 3.117 1.246.246 2.485.567 3.708.962a11.74 11.74 0 0 1 3.3 1.648 8.14 8.14 0 0 1 2.37 2.68c.603 1.077.902 2.43.902 4.047 0 1.658-.324 3.135-.967 4.42a9.327 9.327 0 0 1-2.648 3.236c-1.122.87-2.442 1.534-3.956 1.99-1.517.46-3.168.685-4.955.685-1.831 0-3.375-.132-4.645-.4-1.267-.275-2.316-.593-3.148-.97-.579-.25-1.214-.613-1.897-1.091C.342 50.445 0 49.786 0 48.956c0-.708.207-1.442.622-2.21a37.35 37.35 0 0 1 1.433-2.402c.375.334.844.674 1.404 1.03.563.354 1.206.688 1.933.997.728.31 1.51.572 2.337.778.834.208 1.685.31 2.559.31.538 0 1.102-.037 1.683-.12.582-.087 1.093-.251 1.527-.504.436-.246.801-.58 1.093-.995.288-.41.435-.954.435-1.616 0-1.207-.467-2.065-1.401-2.588-.937-.518-2.335-.96-4.203-1.338a23.874 23.874 0 0 1-3.488-.99 11.124 11.124 0 0 1-2.989-1.654 7.452 7.452 0 0 1-2.086-2.586C.336 34.033.08 32.765.08 31.272c0-1.495.33-2.8.994-3.92a9.414 9.414 0 0 1 2.648-2.866c1.098-.792 2.376-1.381 3.827-1.779a17.427 17.427 0 0 1 4.544-.587c1.662 0 3.145.124 4.451.375 1.308.245 2.44.579 3.394.995 1.827.75 2.778 1.728 2.865 2.934m21.631 8.101c0-1.99-.382-3.61-1.153-4.856-.766-1.246-2.15-1.868-4.147-1.868-1.707 0-3.069.593-4.087 1.772-1.02 1.185-1.53 2.837-1.53 4.952h10.917zm-2.8 12.612c1.04 0 1.954-.114 2.743-.341.788-.23 1.493-.51 2.115-.842a8.522 8.522 0 0 0 1.62-1.092c.461-.392.875-.757 1.25-1.089.495.624 1.016 1.425 1.554 2.4.542.976.812 1.779.812 2.4 0 .916-.518 1.748-1.557 2.497-.873.664-2.108 1.233-3.707 1.716-1.597.478-3.482.717-5.64.717a22.59 22.59 0 0 1-5.766-.747 12.757 12.757 0 0 1-5.046-2.614c-1.476-1.25-2.67-2.915-3.584-5.012-.912-2.1-1.37-4.741-1.37-7.94 0-2.616.405-4.87 1.212-6.757.813-1.894 1.891-3.456 3.242-4.703a12.773 12.773 0 0 1 4.576-2.736 16.036 16.036 0 0 1 5.234-.873c2.326 0 4.298.359 5.92 1.088 1.614.727 2.937 1.706 3.952 2.932a11.438 11.438 0 0 1 2.21 4.21c.458 1.574.69 3.24.69 4.984v.873c0 .334-.014.687-.039 1.06-.022.373-.043.74-.065 1.093-.02.354-.056.63-.102.842h-18.29c.166 2.269.873 4.165 2.118 5.673 1.247 1.51 3.22 2.261 5.918 2.261zm30.187-9.147h-.872c-.29 0-.58.032-.87.086a35.843 35.843 0 0 0-3.077.37c-1.014.167-1.916.457-2.702.872a5.614 5.614 0 0 0-1.926 1.62c-.499.662-.746 1.514-.746 2.553 0 1.16.33 2.145.991 2.958.666.806 1.784 1.215 3.358 1.215.786 0 1.534-.109 2.236-.315a7.456 7.456 0 0 0 1.865-.81c.54-.333.964-.697 1.275-1.093.312-.397.468-.76.468-1.09v-6.365zm7.974 7.254c0 3.282.48 5.673 1.433 7.167a12.34 12.34 0 0 1-2.085.625c-.644.124-1.317.185-2.024.185-1.495 0-2.627-.292-3.393-.873-.768-.586-1.256-1.425-1.463-2.506-.914.95-2.12 1.758-3.61 2.425-1.496.662-3.321.996-5.479.996-1.118 0-2.243-.16-3.361-.47a8.65 8.65 0 0 1-3.05-1.527c-.912-.702-1.66-1.647-2.243-2.833-.58-1.182-.87-2.626-.87-4.327 0-2.117.508-3.843 1.524-5.17 1.016-1.332 2.294-2.376 3.828-3.149a17.302 17.302 0 0 1 4.98-1.581 46.268 46.268 0 0 1 4.917-.565c.495-.055.984-.079 1.461-.079h1.34v-1.119c0-1.582-.428-2.702-1.278-3.367-.852-.66-2.231-.995-4.142-.995-1.787 0-3.374.294-4.766.876a37.977 37.977 0 0 0-4.077 1.99 9.24 9.24 0 0 1-1.403-2.333c-.354-.849-.528-1.484-.528-1.897 0-.579.321-1.145.967-1.68.64-.536 1.524-1.026 2.644-1.457 1.12-.435 2.41-.789 3.862-1.056a25.618 25.618 0 0 1 4.61-.404c2.24 0 4.141.228 5.699.689 1.556.453 2.823 1.163 3.799 2.116.974.956 1.67 2.148 2.088 3.583.416 1.432.62 3.107.62 5.015v11.721zm13.332 7.734c-.163.079-.54.143-1.119.182-.583.036-1.2.06-1.867.06-.828 0-1.575-.07-2.239-.214a3.971 3.971 0 0 1-1.713-.805c-.474-.395-.85-.921-1.117-1.588-.27-.667-.403-1.516-.403-2.555V22.369c0-.042.31-.092.93-.153a18.164 18.164 0 0 1 1.93-.096c.665 0 1.326.065 1.99.19.666.124 1.265.36 1.804.712.537.352.974.853 1.308 1.498.333.644.496 1.482.496 2.521v25.937z" fill="#342B7A"/><path d="M82.523 15.038s3.503 3.245 8.196-1.248c0 0 5.672-6.062 11.326-1.49 0 0-2.078-1.77-6.556 2.375-4.477 4.146-9.132 3.913-12.966.363" fill="#06A38F"/><path d="M80.217 9.478a8.635 8.635 0 0 1 16.27-4.338c.215.409.39.829.534 1.253-7.112-.482-7.763 5.368-9.583 7.19-3.135 3.133-5.686.494-5.686.494a8.607 8.607 0 0 1-1.535-4.598" fill="#342B7A"/></g></svg>