<?xml version="1.0" encoding="utf-8"?>
<!-- Generator: Adobe Illustrator 26.5.3, SVG Export Plug-In . SVG Version: 6.00 Build 0)  -->
<svg version="1.1" id="Layer_1" xmlns="http://www.w3.org/2000/svg" xmlns:xlink="http://www.w3.org/1999/xlink" x="0px" y="0px"
	 viewBox="0 0 130.26 131.57" style="enable-background:new 0 0 130.26 131.57;" xml:space="preserve">
<style type="text/css">
	.st0{fill:#FFB800;}
	.st1{fill:#FFFFFF;}
</style>
<path class="st0" d="M8.66,130.6h113.11c4.27,0,7.72-3.46,7.72-7.72V8.31c0-4.27-3.46-7.72-7.72-7.72H8.66
	c-4.27,0-7.72,3.46-7.72,7.72v114.58C0.93,127.15,4.39,130.6,8.66,130.6z"/>
<g>
	<path class="st1" d="M55.95,75.25c0,1.45-0.18,2.76-0.55,3.92c-0.37,1.16-0.85,2.19-1.46,3.07s-1.31,1.64-2.12,2.27
		c-0.81,0.62-1.65,1.13-2.52,1.53s-1.75,0.69-2.65,0.88c-0.9,0.19-1.74,0.28-2.54,0.28H15.69v-7.37H44.1c1.42,0,2.52-0.42,3.3-1.25
		s1.18-1.95,1.18-3.34c0-0.68-0.1-1.3-0.31-1.87c-0.21-0.57-0.51-1.06-0.89-1.47s-0.86-0.74-1.42-0.96s-1.18-0.34-1.86-0.34H27.16
		c-1.19,0-2.48-0.21-3.85-0.64c-1.38-0.42-2.66-1.11-3.84-2.05s-2.16-2.18-2.95-3.71c-0.78-1.53-1.18-3.4-1.18-5.61
		s0.39-4.08,1.18-5.6c0.78-1.52,1.77-2.76,2.95-3.71s2.46-1.64,3.84-2.07c1.38-0.42,2.66-0.64,3.85-0.64h25.07v7.37H27.16
		c-1.4,0-2.49,0.42-3.27,1.27s-1.18,1.97-1.18,3.37c0,1.42,0.39,2.54,1.18,3.36c0.78,0.82,1.87,1.23,3.27,1.23H44.1h0.06
		c0.79,0.02,1.63,0.13,2.52,0.33s1.77,0.5,2.65,0.92s1.71,0.94,2.51,1.57c0.79,0.63,1.5,1.39,2.11,2.28s1.1,1.91,1.46,3.06
		C55.77,72.49,55.95,73.79,55.95,75.25z"/>
	<path class="st1" d="M101.11,75.25c0,1.45-0.18,2.76-0.55,3.92c-0.37,1.16-0.85,2.19-1.46,3.07s-1.31,1.64-2.12,2.27
		c-0.81,0.62-1.65,1.13-2.52,1.53c-0.87,0.4-1.75,0.69-2.65,0.88c-0.9,0.19-1.74,0.28-2.54,0.28H60.85v-7.37h28.42
		c1.42,0,2.52-0.42,3.3-1.25s1.18-1.95,1.18-3.34c0-0.68-0.1-1.3-0.31-1.87s-0.51-1.06-0.89-1.47s-0.86-0.74-1.42-0.96
		s-1.18-0.34-1.86-0.34H72.33c-1.19,0-2.48-0.21-3.85-0.64c-1.38-0.42-2.66-1.11-3.84-2.05c-1.18-0.94-2.16-2.18-2.95-3.71
		c-0.78-1.53-1.18-3.4-1.18-5.61s0.39-4.08,1.18-5.6c0.78-1.52,1.77-2.76,2.95-3.71s2.46-1.64,3.84-2.07
		c1.38-0.42,2.66-0.64,3.85-0.64H97.4v7.37H72.33c-1.4,0-2.49,0.42-3.27,1.27s-1.18,1.97-1.18,3.37c0,1.42,0.39,2.54,1.18,3.36
		c0.78,0.82,1.87,1.23,3.27,1.23h16.94h0.06c0.79,0.02,1.63,0.13,2.52,0.33s1.77,0.5,2.65,0.92c0.88,0.42,1.71,0.94,2.51,1.57
		c0.79,0.63,1.5,1.39,2.11,2.28s1.1,1.91,1.46,3.06C100.93,72.49,101.11,73.79,101.11,75.25z"/>
	<path class="st1" d="M114.65,87.2h-7.37V46.57h7.37V87.2z"/>
</g>
</svg>
