<svg width="1645" height="174" viewBox="0 0 1645 174" fill="none" xmlns="http://www.w3.org/2000/svg">
<g clip-path="url(#clip0_483_279)">
<path fill-rule="evenodd" clip-rule="evenodd" d="M319.916 166.164C322.112 165.127 323.961 163.399 325.348 161.094C326.735 158.789 327.428 155.563 327.428 151.645V23.853C327.428 19.8199 326.735 16.8238 325.463 14.7497C324.192 12.6755 322.458 11.408 320.262 10.8318C318.066 10.2556 315.408 10.1404 312.172 10.4861L311.247 10.7166L310.323 7.49007L345.92 0.115234V151.645C345.92 155.678 346.614 158.789 347.885 161.094C349.156 163.399 351.006 165.127 353.202 166.164C355.398 167.201 358.287 167.893 361.639 168.238V171.465H311.479V168.238C314.83 167.893 317.72 167.201 319.916 166.164ZM23.6931 170.428C15.9495 168.008 8.32142 164.551 0.924528 159.826V118.574H4.16067C6.9345 135.397 12.1354 147.727 19.8791 155.448C27.5071 163.168 36.5221 167.086 46.6928 167.086C56.2857 167.086 63.7981 164.205 69.2302 158.674C74.6623 153.028 77.3206 145.538 77.0894 136.319C77.0894 130.327 75.8181 124.911 73.1598 120.302C70.5016 115.693 67.0343 111.66 62.6424 108.318C58.2505 104.976 52.8184 101.519 46.1149 97.947C44.9062 97.3043 43.8661 96.7176 42.9944 96.2259L42.9941 96.2258L42.991 96.224L42.9909 96.2239L42.9846 96.2204C42.6099 96.009 42.2664 95.8153 41.9542 95.6424C40.914 95.0662 39.5271 94.3748 37.7934 93.5682C24.271 86.3086 14.5626 78.9338 8.66815 71.4437C2.77375 63.9536 -0.115661 55.4265 -8.40325e-05 45.6318C-8.40325e-05 37.3351 1.96472 29.845 5.89432 23.2768C9.82392 16.7086 15.3716 11.6384 22.6529 7.83576C29.8186 4.14834 38.3713 2.30463 48.3109 2.30463C55.0143 2.30463 61.371 3.11126 67.6122 4.83973C73.8533 6.56821 79.9788 8.98808 85.9888 11.9841L89.6873 14.0583L89.9184 53.0066H86.6823C84.024 37.1046 79.2854 25.8119 72.2352 19.0132C65.1851 12.2146 57.0947 8.87285 47.8486 8.87285C41.8386 8.87285 36.4065 10.1404 31.6679 12.5603C26.9292 14.9801 23.2308 18.4371 20.5725 22.7007C17.9143 27.0795 16.6429 31.6887 16.8741 36.8742C16.8741 41.3682 17.9143 45.5166 19.8791 49.4344C21.8439 53.2371 24.9644 56.9245 29.0096 60.2662C33.1704 63.7232 38.3713 67.2954 44.9592 71.2132C47.3635 72.4118 49.674 73.5792 51.8908 74.6993L51.8942 74.701C53.9386 75.7339 55.9033 76.7266 57.7882 77.6662C66.3408 82.506 73.1598 87.1152 78.4763 91.7245C83.7929 96.3338 87.7225 101.519 90.4963 107.396C93.1546 113.273 94.4259 120.187 94.3103 128.023C94.3103 138.393 92.1144 147.036 87.838 153.834C83.4461 160.748 77.7829 165.819 70.6171 169.045C63.4514 172.272 55.5922 173.885 46.924 173.885C39.1803 173.885 31.4367 172.732 23.6931 170.313V170.428ZM127.596 165.934C120.431 160.979 114.767 154.065 110.607 145.077C106.446 136.089 104.365 125.718 104.365 113.964C104.365 102.211 106.446 91.8397 110.607 82.9669C114.767 74.094 120.431 67.1801 127.596 62.3404C134.762 57.5007 142.506 55.196 151.058 55.196C159.611 55.196 167.355 57.6159 174.52 62.4556C181.686 67.2954 187.349 74.2093 191.741 83.1973C196.133 92.1854 198.214 102.441 198.214 113.964C198.214 125.487 196.018 135.858 191.741 144.846C187.349 153.834 181.686 160.864 174.52 165.819C167.355 170.774 159.611 173.193 151.058 173.193C142.506 173.193 134.647 170.774 127.596 165.819V165.934ZM165.621 159.826C169.666 155.102 172.787 148.764 174.636 140.813C176.601 132.862 177.525 123.989 177.525 114.079C177.525 104.17 176.601 95.4119 174.636 87.6914C172.671 79.9709 169.666 73.7483 165.621 68.9086C161.46 64.0689 156.722 61.7642 151.058 61.7642C145.395 61.7642 140.541 64.1841 136.611 68.9086C132.797 73.7483 129.792 79.9709 127.943 87.5762C125.978 95.1814 125.054 104.054 125.054 114.079C125.054 129.521 127.25 142.196 131.642 152.106C136.033 162.016 142.506 166.971 151.058 166.971C156.606 166.971 161.46 164.666 165.621 159.942V159.826ZM218.439 156.946C221.329 162.246 224.912 166.279 229.535 168.93L229.65 169.045C234.273 171.695 239.128 172.963 244.444 172.963C251.263 172.963 257.735 170.774 263.977 166.395C268.955 162.902 273.198 157.942 276.765 151.633C277.623 158.659 279.035 165.255 281.082 171.58H309.629V168.354C306.624 168.008 303.966 167.317 301.77 166.279C299.574 165.242 297.956 163.514 296.685 161.209C295.413 158.905 294.835 155.793 294.835 151.76V56.694H262.243V59.9205C265.248 60.3815 267.791 61.0728 269.755 62.1099C271.72 63.147 273.223 64.7603 274.494 67.0649C275.765 69.3695 276.343 72.596 276.343 76.7444V143.643C273.223 148.709 269.743 152.644 265.826 155.448C261.318 158.674 256.926 160.172 252.534 160.057C247.218 160.057 242.71 157.868 238.896 153.489C235.082 149.11 233.233 142.772 233.233 134.591V56.694H199.485V59.9205H199.716C202.721 60.3815 205.379 61.0728 207.575 62.1099C209.656 63.147 211.389 64.7603 212.545 67.0649C213.701 69.3695 214.279 72.596 214.279 76.7444V136.78C214.279 144.846 215.666 151.53 218.439 156.946ZM420.929 160.748C419.542 163.283 417.693 165.127 415.266 166.164H415.151C412.839 167.201 409.834 167.893 406.251 168.008V171.465H459.994V168.008C456.643 167.893 453.753 167.201 451.326 166.164C448.899 165.127 446.934 163.283 445.432 160.748C443.929 158.213 443.12 154.872 443.12 150.723V88.9589H467.853C472.245 88.9589 475.597 89.6503 478.024 91.1483C480.451 92.5311 482.185 94.4901 483.341 96.7947C484.496 99.0993 485.19 101.865 485.537 105.091H488.773V65.4517H485.537C485.19 68.7934 484.496 71.7894 483.341 74.094C482.185 76.3987 480.451 78.3576 478.024 79.7404C475.597 81.1232 472.245 81.8146 467.853 81.8146H443.12V11.5232H477.677C484.034 11.5232 489.351 12.906 493.627 15.6715C497.788 18.5523 501.139 22.2397 503.451 27.0795C505.763 31.9192 507.496 37.5656 508.536 44.249L512.235 44.0185L509.23 10.6013L508.536 4.60927H438.15V4.7245H406.367V7.95099H406.598C409.95 8.29669 412.955 8.98808 415.382 10.0252C417.809 11.0622 419.774 12.906 421.045 15.4411C422.316 17.9762 423.01 21.2026 423.01 25.2358V150.723C423.01 154.872 422.316 158.213 420.929 160.748ZM524.833 165.934C517.667 160.979 512.004 154.065 507.843 145.077C503.682 136.089 501.602 125.718 501.602 113.964C501.602 102.211 503.682 91.8397 507.843 82.9669C512.004 74.094 517.667 67.1801 524.833 62.3404C531.998 57.5007 539.742 55.196 548.295 55.196C556.847 55.196 564.591 57.6159 571.757 62.4556C578.922 67.2954 584.586 74.2093 588.978 83.1973C593.37 92.1854 595.45 102.441 595.45 113.964C595.45 125.487 593.254 135.858 588.978 144.846C584.586 153.834 578.922 160.864 571.757 165.819C564.591 170.774 556.847 173.193 548.295 173.193C539.742 173.193 531.883 170.774 524.833 165.819V165.934ZM562.742 159.826C566.787 155.102 569.907 148.764 571.757 140.813C573.721 132.862 574.646 123.989 574.646 114.079C574.646 104.17 573.721 95.4119 571.757 87.6914C569.792 79.9709 566.787 73.7483 562.742 68.9086C558.581 64.0689 553.842 61.7642 548.179 61.7642C542.516 61.7642 537.662 64.1841 533.732 68.9086C529.918 73.7483 526.913 79.9709 525.064 87.5762C523.099 95.1814 522.174 104.054 522.174 114.079C522.174 129.521 524.37 142.196 528.762 152.106C533.154 162.016 539.626 166.971 548.179 166.971C553.727 166.971 558.581 164.666 562.742 159.942V159.826ZM610.012 161.094C608.857 163.399 607.007 165.127 604.812 166.164V166.279C602.616 167.317 599.726 168.008 596.374 168.354V171.58H645.61V168.354C642.258 168.008 639.484 167.317 637.288 166.279C635.093 165.242 633.359 163.514 632.088 161.209C630.816 158.905 630.123 155.793 630.123 151.76V112.005C631.047 102.787 633.243 95.0662 636.826 88.8437C640.409 82.6212 644.801 78.4728 649.886 76.2834C654.972 74.094 660.173 74.2093 665.489 76.5139H666.645L669.188 56.5788C662.831 54.9656 656.821 56.0026 651.042 59.5748C645.263 63.147 640.525 68.3325 636.942 75.1311C633.891 80.9208 631.594 87.0448 630.123 93.503V56.694H596.374V59.9205C599.726 60.3815 602.616 61.0728 604.812 62.1099C607.007 63.147 608.741 64.7603 610.012 67.0649C611.284 69.3695 611.862 72.596 611.862 76.7444V151.645C611.862 155.563 611.284 158.789 610.012 161.094ZM678.665 166.164C680.861 165.127 682.594 163.399 683.866 161.094C685.137 158.789 685.831 155.563 685.831 151.645V76.7444C685.831 72.596 685.137 69.3695 683.866 67.0649C682.594 64.7603 680.861 63.147 678.665 62.1099C676.469 61.0728 673.811 60.3815 670.575 59.9205V56.694H703.861V76.4832C707.328 70.2968 711.199 65.4853 715.418 61.9947C720.85 57.5007 726.86 55.3113 733.564 55.3113C741.654 55.3113 748.242 58.3073 753.327 64.4146C756.198 67.8617 758.258 72.2632 759.508 77.5985C763.295 70.763 767.415 65.5233 771.935 61.8795C777.367 57.5007 783.377 55.3113 789.849 55.3113C797.94 55.3113 804.528 58.4225 809.729 64.5298C814.93 70.7523 817.472 79.7404 817.472 91.6093V151.645C817.472 155.678 818.05 158.789 819.321 161.094C820.593 163.399 822.211 165.127 824.407 166.164C826.603 167.201 829.146 167.893 832.035 168.238V171.465H785.573V168.238C788.347 167.893 790.774 167.201 792.854 166.164H793.086C795.166 165.127 796.784 163.399 797.94 161.094C799.096 158.789 799.674 155.563 799.674 151.645V93.6834C799.674 85.502 797.94 79.2795 794.473 75.0159C791.005 70.7523 786.613 68.6781 781.297 68.6781C777.136 68.6781 773.091 70.1762 769.277 73.2874C766.354 75.6717 763.431 78.8681 760.456 82.9803C760.789 85.6669 760.955 88.5438 760.955 91.6093V151.645C760.955 155.678 761.533 158.789 762.573 161.094C763.614 163.399 765.116 165.127 767.081 166.164C769.046 167.201 771.473 167.893 774.362 168.238V171.465H729.056V168.238C731.83 167.893 734.257 167.201 736.222 166.164H736.338C738.302 165.127 739.92 163.399 741.076 161.094C742.232 158.789 742.81 155.563 742.81 151.645V93.6834C742.81 85.502 741.192 79.2795 737.84 75.0159C734.488 70.7523 730.212 68.6781 724.896 68.6781C720.504 68.6781 716.574 70.1762 712.876 73.2874C709.891 75.7983 706.906 79.2097 703.861 83.6429V151.76C703.861 155.793 704.438 159.02 705.71 161.325C706.981 163.629 708.599 165.473 710.448 166.395C712.413 167.432 714.956 168.008 718.192 168.354H718.423V171.58H670.575V168.354C673.811 168.008 676.585 167.317 678.665 166.279V166.164ZM890.401 160.748C889.014 163.283 887.165 165.127 884.738 166.164H884.622C882.311 167.201 879.306 167.893 875.723 168.008V171.465H929.466V168.008C926.114 167.893 923.225 167.201 920.798 166.164C918.371 165.127 916.406 163.283 914.903 160.748C913.401 158.213 912.592 154.872 912.592 150.723V88.9589H937.325C941.717 88.9589 945.069 89.6503 947.496 91.1483C949.923 92.5311 951.657 94.4901 952.812 96.7947C953.968 99.0993 954.661 101.865 955.008 105.091H958.244V65.4517H955.008C954.661 68.7934 953.968 71.7894 952.812 74.094C951.657 76.3987 949.923 78.3576 947.496 79.7404C945.069 81.1232 941.717 81.8146 937.325 81.8146H912.592V11.5232H947.149C953.506 11.5232 958.822 12.906 963.099 15.6715C967.259 18.5523 970.611 22.2397 972.923 27.0795C975.234 31.9192 976.968 37.5656 978.008 44.249L981.706 44.0185L978.701 10.6013L978.008 4.60927H907.622V4.7245H875.838V7.95099H876.07C879.421 8.29669 882.426 8.98808 884.853 10.0252C887.28 11.0622 889.245 12.906 890.517 15.4411C891.788 17.9762 892.481 21.2026 892.481 25.2358V150.723C892.481 154.872 891.788 158.213 890.401 160.748ZM1001.59 168.93C996.963 166.279 993.38 162.246 990.49 156.946C987.716 151.53 986.329 144.846 986.329 136.78V76.7444C986.329 72.596 985.752 69.3695 984.596 67.0649C983.44 64.7603 981.706 63.147 979.626 62.1099C977.43 61.0728 974.772 60.3815 971.767 59.9205H971.536V56.694H1005.28V134.591C1005.28 142.772 1007.13 149.11 1010.95 153.489C1014.76 157.868 1019.27 160.057 1024.59 160.057C1028.98 160.172 1033.37 158.674 1037.88 155.448C1041.79 152.644 1045.27 148.709 1048.39 143.643V76.7444C1048.39 72.596 1047.82 69.3695 1046.54 67.0649C1045.27 64.7603 1043.77 63.147 1041.81 62.1099C1039.84 61.0728 1037.3 60.3815 1034.29 59.9205V56.694H1066.89V151.76C1066.89 155.793 1067.46 158.905 1068.74 161.209C1070.01 163.514 1071.62 165.242 1073.82 166.279C1076.02 167.317 1078.68 168.008 1081.68 168.354V171.58H1053.13C1051.09 165.255 1049.67 158.659 1048.82 151.633C1045.25 157.942 1041.01 162.902 1036.03 166.395C1029.79 170.774 1023.31 172.963 1016.49 172.963C1011.18 172.963 1006.32 171.695 1001.7 169.045L1001.59 168.93ZM1097.63 161.094C1096.47 163.399 1094.62 165.127 1092.43 166.164V166.279C1090.23 167.317 1087.34 168.008 1083.99 168.354V171.58H1133.23V168.354C1129.88 168.008 1127.1 167.317 1124.91 166.279C1122.71 165.242 1120.98 163.514 1119.7 161.209C1118.43 158.905 1117.74 155.793 1117.74 151.76V112.005C1118.66 102.787 1120.86 95.0662 1124.44 88.8437C1128.03 82.6212 1132.42 78.4728 1137.5 76.2834C1142.59 74.094 1147.79 74.2093 1153.11 76.5139H1154.26L1156.8 56.5788C1150.45 54.9656 1144.44 56.0026 1138.66 59.5748C1132.88 63.147 1128.14 68.3325 1124.56 75.1311C1121.51 80.9209 1119.21 87.045 1117.74 93.5034V56.694H1083.99V59.9205C1087.34 60.3815 1090.23 61.0728 1092.43 62.1099C1094.62 63.147 1096.36 64.7603 1097.63 67.0649C1098.9 69.3695 1099.48 72.596 1099.48 76.7444V151.645C1099.48 155.563 1098.9 158.789 1097.63 161.094ZM1165.94 166.164C1168.02 165.127 1169.63 163.399 1170.91 161.094C1172.18 158.789 1172.75 155.563 1172.75 151.645V76.7444C1172.75 72.596 1172.18 69.3695 1170.91 67.0649C1169.63 64.7603 1168.02 63.147 1165.94 62.1099C1163.85 61.0728 1161.2 60.3815 1158.19 59.9205V56.694H1191.25V76.7079C1194.64 70.4722 1198.72 65.5488 1203.38 61.9947C1209.28 57.5007 1215.63 55.3113 1222.45 55.3113C1227.54 55.3113 1232.39 56.694 1237.01 59.3444C1241.64 62.1099 1245.22 66.143 1247.99 71.5589C1250.65 76.9748 1252.04 83.6583 1252.04 91.7245V151.76C1252.04 155.793 1252.62 158.905 1253.89 161.209C1255.16 163.514 1256.78 165.242 1258.97 166.279C1261.17 167.317 1263.71 168.008 1266.6 168.354V171.58H1219.68V168.354C1222.8 168.008 1225.23 167.317 1227.08 166.279L1227.19 166.164C1229.04 165.127 1230.54 163.399 1231.7 161.094C1232.85 158.789 1233.43 155.563 1233.43 151.645V93.6834C1233.43 85.502 1231.58 79.2795 1227.88 74.9007C1224.19 70.5219 1219.68 68.3325 1214.36 68.2172C1209.97 68.3325 1205.69 69.9457 1201.42 73.057C1197.83 75.6681 1194.48 79.3343 1191.25 84.1238V151.76C1191.25 155.793 1191.82 158.905 1192.98 161.209C1194.14 163.514 1195.64 165.242 1197.6 166.279C1199.57 167.317 1202 168.008 1204.88 168.354V171.58H1158.19V168.354C1161.31 168.008 1163.85 167.317 1165.94 166.279V166.164ZM1281.17 161.094C1279.89 163.399 1278.04 165.127 1275.73 166.164V166.279C1273.42 167.317 1270.53 168.008 1266.95 168.354V171.58H1317.57V168.354C1314.1 168.008 1311.1 167.317 1308.9 166.279C1306.71 165.242 1304.86 163.514 1303.59 161.209C1302.32 158.905 1301.62 155.793 1301.62 151.76V56.694H1267.18V59.9205C1270.65 60.3815 1273.65 61.0728 1275.96 62.1099C1278.28 63.147 1280.01 64.7603 1281.28 67.0649C1282.55 69.3695 1283.13 72.596 1283.13 76.7444V151.645C1283.13 155.563 1282.44 158.789 1281.17 161.094ZM1276.89 25.351C1276.89 29.0384 1278.16 32.2649 1280.7 34.9152C1283.25 37.5656 1286.37 38.9483 1289.83 38.9483C1293.3 38.9483 1296.42 37.6808 1298.85 35.0305C1301.28 32.4954 1302.55 29.2689 1302.55 25.5815C1302.55 21.6636 1301.28 18.3219 1298.73 15.6715C1296.19 13.0212 1293.3 11.7536 1289.6 11.7536C1285.9 11.7536 1282.9 13.0212 1280.47 15.6715C1278.04 18.2066 1276.89 21.6636 1276.89 25.351ZM1333.64 164.781C1329.59 159.02 1327.63 151.53 1327.63 142.311V64.4146H1312.95V60.7271C1319.31 58.7682 1325.08 54.8503 1330.4 48.9735C1335.72 43.2119 1339.88 35.6066 1343 26.3881H1346.23V56.5788H1373.86V64.4146H1346.23V139.43C1346.23 146.229 1347.39 151.53 1349.59 155.217C1351.78 158.905 1355.25 160.748 1359.76 160.748C1362.07 160.748 1364.38 160.172 1366.69 158.905C1369 157.637 1371.55 155.793 1374.09 153.143L1376.17 153.374C1373.51 159.711 1370.16 164.666 1366 168.123C1361.84 171.58 1356.87 173.309 1350.74 173.309C1343.35 173.309 1337.57 170.428 1333.52 164.781H1333.64ZM1394.89 156.946C1397.78 162.246 1401.36 166.279 1405.99 168.93L1406.1 169.045C1410.73 171.695 1415.58 172.963 1420.9 172.963C1427.72 172.963 1434.19 170.774 1440.43 166.395C1445.41 162.902 1449.65 157.942 1453.22 151.633C1454.08 158.659 1455.49 165.255 1457.53 171.58H1486.08V168.354C1483.08 168.008 1480.42 167.317 1478.22 166.279C1476.03 165.242 1474.41 163.514 1473.14 161.209C1471.87 158.905 1471.29 155.793 1471.29 151.76V56.694H1438.7V59.9205C1441.7 60.3815 1444.24 61.0728 1446.21 62.1099C1448.17 63.147 1449.68 64.7603 1450.95 67.0649C1452.22 69.3695 1452.8 72.596 1452.8 76.7444V143.643C1449.68 148.709 1446.2 152.644 1442.28 155.448C1437.77 158.674 1433.38 160.172 1428.99 160.057C1423.67 160.057 1419.16 157.868 1415.35 153.489C1411.54 149.11 1409.69 142.772 1409.69 134.591V56.694H1375.94V59.9205H1376.17C1379.17 60.3815 1381.83 61.0728 1384.03 62.1099C1386.11 63.147 1387.84 64.7603 1389 67.0649C1390.15 69.3695 1390.73 72.596 1390.73 76.7444V136.78C1390.73 144.846 1392.12 151.53 1394.89 156.946ZM1496.83 166.164C1499.03 165.127 1500.88 163.399 1502.03 161.094C1503.3 158.789 1503.88 155.563 1503.88 151.645V76.7444C1503.88 72.596 1503.3 69.3695 1502.03 67.0649C1500.76 64.7603 1499.03 63.147 1496.83 62.1099C1494.63 61.0728 1491.75 60.3815 1488.39 59.9205V56.694H1522.14V93.5034C1523.61 87.045 1525.91 80.9209 1528.96 75.1311C1532.54 68.3325 1537.28 63.147 1543.06 59.5748C1548.84 56.0026 1554.85 54.9656 1561.21 56.5788L1558.66 76.5139H1557.51C1552.19 74.2093 1546.99 74.094 1541.91 76.2834C1536.82 78.4728 1532.43 82.6212 1528.85 88.8437C1525.26 95.0662 1523.07 102.787 1522.14 112.005V151.76C1522.14 155.793 1522.84 158.905 1524.11 161.209C1525.38 163.514 1527.11 165.242 1529.31 166.279C1531.5 167.317 1534.28 168.008 1537.63 168.354V171.58H1488.39V168.354C1491.75 168.008 1494.63 167.317 1496.83 166.279V166.164ZM1568.14 145.307C1572.19 154.295 1577.62 161.209 1584.32 166.049C1591.03 170.889 1598.42 173.309 1606.51 173.309C1612.87 173.309 1618.65 171.926 1623.85 169.275C1629.05 166.625 1633.44 162.938 1637.03 158.098C1640.49 153.258 1643.27 147.958 1645.12 142.081L1642.8 141.389C1638.87 147.727 1634.37 152.567 1629.28 155.793C1624.08 159.02 1618.76 160.633 1613.22 160.633C1607.21 160.633 1601.77 158.674 1597.04 154.526C1592.41 150.377 1588.6 144.501 1585.82 136.78C1583.13 129.287 1581.75 120.491 1581.67 110.392H1644.65C1644.88 99.3298 1643.38 89.6503 1640.26 81.4689C1637.14 73.2874 1632.63 66.8344 1626.62 62.2252C1620.61 57.6159 1613.1 55.3113 1604.89 55.3113C1596.69 55.3113 1589.41 57.7311 1582.94 62.6861C1576.46 67.6411 1571.38 74.555 1567.68 83.4278C1563.98 92.3007 1562.13 102.211 1562.13 114.079C1562.13 125.948 1564.1 136.319 1568.14 145.307ZM1581.82 103.709H1626.05C1625.7 91.494 1623.73 81.4689 1620.04 73.7483C1616.34 65.9126 1611.14 61.9947 1604.43 61.9947C1599.81 61.9947 1595.76 64.2993 1592.18 68.7934C1588.71 73.4026 1586.06 79.1642 1584.32 86.3086C1583 91.7717 1582.14 97.5717 1581.82 103.709Z" fill="#F1DAC9"/>
</g>
<defs>
<clipPath id="clip0_483_279">
<rect width="1645" height="174" fill="white"/>
</clipPath>
</defs>
</svg>
